<?xml version="1.0" standalone="no"?>
<svg xmlns="http://www.w3.org/2000/svg" width="1396" height="128.359375" viewBox="0 0 1396 128.359375" xmlns:c2pa="http://c2pa.org/manifest"><metadata><c2pa:manifest>AAAIEWp1bWIAAAAeanVtZGMycGEAEQAQgAAAqgA4m3EDYzJwYQAAAAfranVtYgAAAEdqdW1kYzJtYQARABCAAACqADibcQN1cm46dXVpZDo3MzdkMmFjYy1mNTAwLTQ1ZTYtOTgzNy0yMTc1ODdjZmU5YjEAAAADMmp1bWIAAAApanVtZGMyYXMAEQAQgAAAqgA4m3EDYzJwYS5hc3NlcnRpb25zAAAAAO5qdW1iAAAAKWp1bWRjYm9yABEAEIAAAKoAOJtxA2MycGEuYWN0aW9ucy52MgAAAAC9Y2JvcqFnYWN0aW9uc4GkZmFjdGlvbmxjMnBhLmNyZWF0ZWRxZGlnaXRhbFNvdXJjZVR5cGV4Pmh0dHA6Ly9jdi5pcHRjLm9yZy9uZXdzY29kZXMvZGlnaXRhbHNvdXJjZXR5cGUvZGlnaXRhbENyZWF0aW9ubXNvZnR3YXJlQWdlbnSiZG5hbWVlTG9sbHlndmVyc2lvbmcxLjEwNS4wZHdoZW50MjAyNi0wOC0wNlQwOTo0Nzo0MFoAAACranVtYgAAAChqdW1kY2JvcgARABCAAACqADibcQNjMnBhLmhhc2guZGF0YQAAAAB7Y2JvcqVqZXhjbHVzaW9uc4GiZXN0YXJ0GMxmbGVuZ3RoGQrEZG5hbWVuanVtYmYgbWFuaWZlc3RjYWxnZnNoYTI1NmRoYXNoWCDDkLt6sQ/0RmR29fbfhNSM6xXx5QORvzhlgEjiBslvhGNwYWRIAAAAAAAAAAAAAAFoanVtYgAAACxqdW1kY2JvcgARABCAAACqADibcQN0b29scy5sb2xseS5leHBvcnQAAAABNGNib3KoZ3N1cmZhY2VkZG9jc2ZlbmdpbmVtbm9kZSB2MjQuMTkuMGJvc2ZkYXJ3aW5mZm9ybWF0Y3N2Z2R0b29sblVSTCBTY3JlZW5zaG90ZGRhdGV4GDIwMjYtMDgtMDZUMDk6NDc6NDAuMTY0WmpkaW1lbnNpb25zbjE0NDAgw5cgOTAwIHB4ZmlucHV0c6hjdXJscy8jL3N0YXJ0P3RhYj10b2tlbnNmd2FpdE1zZDE4MDBjY3NzeBkuc3RhcnQtaGVhZHtkaXNwbGF5Om5vbmV9ZXRoZW1lZGRhcmtnY3JvcFRvcHMwLjE5NTEwNDE2NjY2NjY2NjY2aWNyb3BSaWdodGEwamNyb3BCb3R0b21yMC42MDg5NDA5NzIyMjIyMjIyaGNyb3BMZWZ0YTAAAAIJanVtYgAAACdqdW1kYzJjbAARABCAAACqADibcQNjMnBhLmNsYWltLnYyAAAAAdpjYm9ypmhkYzp0aXRsZW5VUkwgU2NyZWVuc2hvdGppbnN0YW5jZUlEeC11cm46dXVpZDpmODExNmM1Zi04OTA4LTQxY2QtYTY3Yy04ZjhlOWNjODljY2V0Y2xhaW1fZ2VuZXJhdG9yX2luZm+iZG5hbWVlTG9sbHlndmVyc2lvbmcxLjEwNS4wcmNyZWF0ZWRfYXNzZXJ0aW9uc4OiY3VybHgqc2VsZiNqdW1iZj1jMnBhLmFzc2VydGlvbnMvYzJwYS5hY3Rpb25zLnYyZGhhc2hYINQlcWeSJlRsRbePLBES1EFkWd1ZeK7LsvozVw3QNu7vomN1cmx4KXNlbGYjanVtYmY9YzJwYS5hc3NlcnRpb25zL2MycGEuaGFzaC5kYXRhZGhhc2hYIG2TJnW6lAZ6lZnoZjucZrIk4GXgGyuliKVl9uWXi/VkomN1cmx4LXNlbGYjanVtYmY9YzJwYS5hc3NlcnRpb25zL3Rvb2xzLmxvbGx5LmV4cG9ydGRoYXNoWCB3bc5fqtBWC4y8I214Ds8CqZF3ahiP0gIWEsPY1hmz5mlzaWduYXR1cmV4GXNlbGYjanVtYmY9YzJwYS5zaWduYXR1cmVjYWxnZnNoYTI1NgAAAmFqdW1iAAAAKGp1bWRjMmNzABEAEIAAAKoAOJtxA2MycGEuc2lnbmF0dXJlAAAAAjFjYm9y0oRZAeCiASYYIYFZAdcwggHTMIIBeaADAgECAglZn3qG9jNzh5EwCgYIKoZIzj0EAwIwNTEOMAwGA1UECgwFTG9sbHkxIzAhBgNVBAMMGkxvbGx5IE9uLURldmljZSBDcmVkZW50aWFsMB4XDTI2MDgwNjA5NDY0MFoXDTI3MDgwNjA5NDc0MFowNTEOMAwGA1UECgwFTG9sbHkxIzAhBgNVBAMMGkxvbGx5IE9uLURldmljZSBDcmVkZW50aWFsMFkwEwYHKoZIzj0CAQYIKoZIzj0DAQcDQgAEPsFzwhfTKFhNHsDAMPwJzdjRbafl+p9cyZq65cAIotDrgaFcKhBVL0/fzyXbdrvtjf/MVSDu4k2mOxwqHZ4FxqNyMHAwCQYDVR0TBAIwADAOBgNVHQ8BAf8EBAMCB4AwEwYDVR0lBAwwCgYIKwYBBQUHAwQwHQYDVR0OBBYEFJJL1WXfJmnCCjijXIYwYuvYDaVkMB8GA1UdIwQYMBaAFJJL1WXfJmnCCjijXIYwYuvYDaVkMAoGCCqGSM49BAMCA0gAMEUCIQC8jGaTHmeiRVc/HaaRYk1J0luTBbKIeE5atuXWE+0ILQIgA65toy2Kg2+fO0nt4DsJkYuJBDPhiC9pZFvS7OeFchqg9lhAq0o9BZJ21rCdxoJPITF7GyxNqnZZQd+USfXitlefixTRJ3bl9Pj+HerAwpN5JjrHxQ4A9FW8BWG/CekfJ0ovuQ==</c2pa:manifest></metadata><defs><clipPath id="fcshclip-1" clipPathUnits="userSpaceOnUse"><path d="M-0.41 59.56H69.59V129.56H-0.41ZM34.594,78.563 H34.594 A16,16 0 0 1 50.594,94.563 V94.563 A16,16 0 0 1 34.594,110.563 H34.594 A16,16 0 0 1 18.594,94.563 V94.563 A16,16 0 0 1 34.594,78.563 Z" clip-rule="evenodd"/></clipPath><filter id="shadow-2" filterUnits="userSpaceOnUse" x="6.09375" y="68.0625" width="57" height="57"><feGaussianBlur in="SourceGraphic" stdDeviation="1.5"/></filter><filter id="shadow-3" filterUnits="userSpaceOnUse" x="872.640625" y="74.5625" width="42" height="42"><feGaussianBlur in="SourceGraphic" stdDeviation="2"/></filter></defs><g><g><rect x="0" y="0" width="1396" height="128.359375" rx="16" ry="16" fill="rgb(3,7,17)"/><rect x="0.5" y="0.5" width="1395" height="127.359375" rx="15.5" ry="15.5" fill="none" stroke="rgb(31,42,61)" stroke-width="1"/><g><g><path d="M2.53,-3.9L2.53,-5.47L4.53,-5.47Q5.16,-5.47 5.5,-5.79Q5.85,-6.11 5.85,-6.66Q5.85,-7.18 5.51,-7.51Q5.17,-7.85 4.54,-7.85L2.53,-7.85L2.53,-9.49L4.78,-9.49Q5.73,-9.49 6.44,-9.13Q7.15,-8.77 7.55,-8.14Q7.95,-7.51 7.95,-6.69Q7.95,-5.85 7.55,-5.23Q7.14,-4.6 6.42,-4.25Q5.69,-3.9 4.72,-3.9L2.53,-3.9ZM0.91,0L0.91,-9.49L3.02,-9.49L3.02,0L0.91,0ZM6.07,0L3.12,-4.09L5.05,-4.61L8.57,0L6.07,0ZM14.24,0.16Q13.17,0.16 12.26,-0.22Q11.35,-0.59 10.67,-1.26Q9.99,-1.93 9.61,-2.83Q9.23,-3.72 9.23,-4.76Q9.23,-5.8 9.6,-6.69Q9.98,-7.57 10.65,-8.24Q11.33,-8.91 12.24,-9.28Q13.14,-9.65 14.21,-9.65Q15.28,-9.65 16.19,-9.28Q17.1,-8.91 17.77,-8.24Q18.45,-7.57 18.83,-6.68Q19.21,-5.79 19.21,-4.74Q19.21,-3.71 18.83,-2.82Q18.45,-1.92 17.78,-1.25Q17.1,-0.58 16.2,-0.21Q15.29,0.16 14.24,0.16ZM14.21,-1.76Q15.07,-1.76 15.7,-2.14Q16.34,-2.51 16.69,-3.19Q17.04,-3.86 17.04,-4.76Q17.04,-5.42 16.84,-5.97Q16.64,-6.51 16.26,-6.91Q15.89,-7.3 15.37,-7.52Q14.85,-7.73 14.21,-7.73Q13.37,-7.73 12.73,-7.36Q12.1,-6.99 11.74,-6.32Q11.39,-5.65 11.39,-4.76Q11.39,-4.09 11.59,-3.53Q11.79,-2.98 12.17,-2.58Q12.54,-2.19 13.06,-1.98Q13.58,-1.76 14.21,-1.76ZM24.64,0.15Q23.47,0.15 22.58,-0.35Q21.68,-0.85 21.18,-1.73Q20.67,-2.61 20.67,-3.73L20.67,-9.49L22.79,-9.49L22.79,-3.62Q22.79,-3.04 23.03,-2.63Q23.28,-2.22 23.7,-2Q24.12,-1.77 24.64,-1.77Q25.17,-1.77 25.57,-1.99Q25.98,-2.22 26.21,-2.63Q26.45,-3.04 26.45,-3.6L26.45,-9.49L28.57,-9.49L28.57,-3.72Q28.57,-2.59 28.07,-1.72Q27.57,-0.85 26.69,-0.35Q25.8,0.15 24.64,0.15ZM30.52,0L30.52,-9.49L31.99,-9.49L32.63,-7.59L32.63,0L30.52,0ZM37.07,0L31.48,-7.16L31.99,-9.49L37.58,-2.33L37.07,0ZM37.07,0L36.5,-1.89L36.5,-9.49L38.61,-9.49L38.61,0L37.07,0ZM42.13,0L42.13,-1.85L44.49,-1.85Q45.35,-1.85 45.99,-2.19Q46.63,-2.54 46.98,-3.2Q47.34,-3.85 47.34,-4.76Q47.34,-5.66 46.98,-6.3Q46.62,-6.95 45.98,-7.29Q45.34,-7.64 44.49,-7.64L42.07,-7.64L42.07,-9.49L44.51,-9.49Q45.58,-9.49 46.49,-9.14Q47.4,-8.8 48.08,-8.16Q48.75,-7.53 49.13,-6.66Q49.5,-5.79 49.5,-4.74Q49.5,-3.7 49.13,-2.83Q48.75,-1.96 48.08,-1.33Q47.41,-0.69 46.5,-0.35Q45.6,0 44.53,0L42.13,0ZM40.7,0L40.7,-9.49L42.82,-9.49L42.82,0L40.7,0ZM51.11,0L51.11,-9.49L53.22,-9.49L53.22,0L51.11,0ZM52.73,0L52.73,-1.82L57.93,-1.82L57.93,0L52.73,0ZM52.73,-3.96L52.73,-5.73L57.45,-5.73L57.45,-3.96L52.73,-3.96ZM52.73,-7.67L52.73,-9.49L57.85,-9.49L57.85,-7.67L52.73,-7.67ZM61.07,0L61.07,-1.85L63.42,-1.85Q64.28,-1.85 64.93,-2.19Q65.57,-2.54 65.92,-3.2Q66.27,-3.85 66.27,-4.76Q66.27,-5.66 65.91,-6.3Q65.55,-6.95 64.92,-7.29Q64.28,-7.64 63.42,-7.64L61,-7.64L61,-9.49L63.44,-9.49Q64.52,-9.49 65.43,-9.14Q66.34,-8.8 67.02,-8.16Q67.69,-7.53 68.06,-6.66Q68.44,-5.79 68.44,-4.74Q68.44,-3.7 68.06,-2.83Q67.69,-1.96 67.02,-1.33Q66.35,-0.69 65.44,-0.35Q64.53,0 63.47,0L61.07,0ZM59.64,0L59.64,-9.49L61.76,-9.49L61.76,0L59.64,0ZM77.37,0.15Q76.31,0.15 75.4,-0.22Q74.49,-0.59 73.81,-1.26Q73.13,-1.93 72.76,-2.82Q72.39,-3.72 72.39,-4.75Q72.39,-5.79 72.76,-6.68Q73.13,-7.57 73.81,-8.23Q74.48,-8.89 75.39,-9.26Q76.29,-9.64 77.35,-9.64Q78.48,-9.64 79.36,-9.27Q80.24,-8.91 80.91,-8.28L79.49,-6.85Q79.12,-7.26 78.59,-7.49Q78.06,-7.71 77.35,-7.71Q76.74,-7.71 76.22,-7.51Q75.71,-7.3 75.33,-6.9Q74.96,-6.51 74.76,-5.96Q74.55,-5.42 74.55,-4.75Q74.55,-4.08 74.76,-3.53Q74.96,-2.98 75.33,-2.59Q75.71,-2.2 76.22,-1.99Q76.74,-1.77 77.35,-1.77Q78.09,-1.77 78.62,-2Q79.16,-2.22 79.54,-2.63L80.97,-1.21Q80.29,-0.57 79.41,-0.21Q78.53,0.15 77.37,0.15ZM86.55,0.16Q85.48,0.16 84.57,-0.22Q83.66,-0.59 82.98,-1.26Q82.29,-1.93 81.91,-2.83Q81.53,-3.72 81.53,-4.76Q81.53,-5.8 81.91,-6.69Q82.29,-7.57 82.96,-8.24Q83.64,-8.91 84.54,-9.28Q85.45,-9.65 86.52,-9.65Q87.59,-9.65 88.5,-9.28Q89.4,-8.91 90.08,-8.24Q90.76,-7.57 91.14,-6.68Q91.51,-5.79 91.51,-4.74Q91.51,-3.71 91.14,-2.82Q90.76,-1.92 90.08,-1.25Q89.41,-0.58 88.51,-0.21Q87.6,0.16 86.55,0.16ZM86.52,-1.76Q87.37,-1.76 88.01,-2.14Q88.64,-2.51 89,-3.19Q89.35,-3.86 89.35,-4.76Q89.35,-5.42 89.15,-5.97Q88.95,-6.51 88.57,-6.91Q88.19,-7.3 87.68,-7.52Q87.16,-7.73 86.52,-7.73Q85.67,-7.73 85.04,-7.36Q84.4,-6.99 84.05,-6.32Q83.7,-5.65 83.7,-4.76Q83.7,-4.09 83.9,-3.53Q84.1,-2.98 84.47,-2.58Q84.85,-2.19 85.37,-1.98Q85.89,-1.76 86.52,-1.76ZM94.74,-3.9L94.74,-5.47L96.74,-5.47Q97.37,-5.47 97.72,-5.79Q98.06,-6.11 98.06,-6.66Q98.06,-7.18 97.72,-7.51Q97.38,-7.85 96.75,-7.85L94.74,-7.85L94.74,-9.49L97,-9.49Q97.94,-9.49 98.65,-9.13Q99.36,-8.77 99.76,-8.14Q100.16,-7.51 100.16,-6.69Q100.16,-5.85 99.76,-5.23Q99.36,-4.6 98.63,-4.25Q97.9,-3.9 96.93,-3.9L94.74,-3.9ZM93.12,0L93.12,-9.49L95.24,-9.49L95.24,0L93.12,0ZM98.28,0L95.33,-4.09L97.26,-4.61L100.78,0L98.28,0ZM101.96,0L101.96,-9.49L103.44,-9.49L104.08,-7.59L104.08,0L101.96,0ZM108.51,0L102.92,-7.16L103.44,-9.49L109.03,-2.33L108.51,0ZM108.51,0L107.94,-1.89L107.94,-9.49L110.06,-9.49L110.06,0L108.51,0ZM112.15,0L112.15,-9.49L114.27,-9.49L114.27,0L112.15,0ZM113.77,0L113.77,-1.82L118.97,-1.82L118.97,0L113.77,0ZM113.77,-3.96L113.77,-5.73L118.49,-5.73L118.49,-3.96L113.77,-3.96ZM113.77,-7.67L113.77,-9.49L118.9,-9.49L118.9,-7.67L113.77,-7.67ZM122.3,-3.9L122.3,-5.47L124.31,-5.47Q124.94,-5.47 125.28,-5.79Q125.62,-6.11 125.62,-6.66Q125.62,-7.18 125.28,-7.51Q124.94,-7.85 124.31,-7.85L122.3,-7.85L122.3,-9.49L124.56,-9.49Q125.5,-9.49 126.22,-9.13Q126.93,-8.77 127.33,-8.14Q127.73,-7.51 127.73,-6.69Q127.73,-5.85 127.32,-5.23Q126.92,-4.6 126.19,-4.25Q125.47,-3.9 124.49,-3.9L122.3,-3.9ZM120.68,0L120.68,-9.49L122.8,-9.49L122.8,0L120.68,0ZM125.85,0L122.9,-4.09L124.82,-4.61L128.35,0L125.85,0ZM132.16,0.15Q130.99,0.15 130.14,-0.23Q129.3,-0.61 128.61,-1.39L129.97,-2.76Q130.43,-2.22 130.99,-1.94Q131.54,-1.65 132.29,-1.65Q132.96,-1.65 133.33,-1.89Q133.7,-2.14 133.7,-2.57Q133.7,-2.95 133.46,-3.2Q133.22,-3.44 132.82,-3.62Q132.42,-3.79 131.95,-3.95Q131.47,-4.11 131,-4.32Q130.52,-4.53 130.13,-4.84Q129.73,-5.15 129.49,-5.63Q129.25,-6.12 129.25,-6.83Q129.25,-7.71 129.67,-8.34Q130.1,-8.97 130.85,-9.3Q131.6,-9.64 132.58,-9.64Q133.58,-9.64 134.41,-9.28Q135.23,-8.93 135.76,-8.33L134.39,-6.97Q133.97,-7.41 133.53,-7.63Q133.09,-7.84 132.55,-7.84Q131.99,-7.84 131.66,-7.63Q131.34,-7.43 131.34,-7.04Q131.34,-6.68 131.58,-6.46Q131.83,-6.24 132.22,-6.07Q132.62,-5.91 133.1,-5.75Q133.57,-5.58 134.05,-5.37Q134.52,-5.16 134.92,-4.83Q135.31,-4.5 135.56,-4Q135.8,-3.49 135.8,-2.76Q135.8,-1.39 134.83,-0.62Q133.86,0.15 132.16,0.15Z" transform="translate(18.59,32.8)" fill="rgb(225,231,239)" stroke-width="1px"/></g><g><path d="M5.09,0.13Q4.15,0.13 3.33,-0.23Q2.51,-0.58 1.9,-1.21Q1.28,-1.84 0.94,-2.67Q0.6,-3.5 0.6,-4.45Q0.6,-5.41 0.94,-6.24Q1.28,-7.06 1.89,-7.69Q2.5,-8.31 3.31,-8.66Q4.12,-9.01 5.07,-9.01Q6.02,-9.01 6.83,-8.66Q7.64,-8.31 8.25,-7.69Q8.87,-7.06 9.21,-6.23Q9.56,-5.4 9.56,-4.44Q9.56,-3.49 9.21,-2.66Q8.87,-1.82 8.26,-1.2Q7.65,-0.58 6.84,-0.23Q6.03,0.13 5.09,0.13ZM5.07,-1.03Q6.02,-1.03 6.75,-1.47Q7.48,-1.91 7.9,-2.68Q8.31,-3.46 8.31,-4.45Q8.31,-5.2 8.07,-5.82Q7.83,-6.44 7.4,-6.9Q6.96,-7.36 6.37,-7.61Q5.78,-7.86 5.07,-7.86Q4.12,-7.86 3.4,-7.42Q2.67,-6.99 2.25,-6.22Q1.84,-5.45 1.84,-4.45Q1.84,-3.71 2.08,-3.08Q2.32,-2.45 2.75,-1.99Q3.18,-1.54 3.77,-1.28Q4.37,-1.03 5.07,-1.03ZM15.3,0L15.3,-3.54Q15.3,-4.24 14.87,-4.68Q14.44,-5.13 13.75,-5.13Q13.28,-5.13 12.93,-4.93Q12.57,-4.72 12.36,-4.36Q12.16,-4.01 12.16,-3.54L11.68,-3.81Q11.68,-4.51 11.99,-5.04Q12.3,-5.58 12.85,-5.9Q13.4,-6.21 14.09,-6.21Q14.78,-6.21 15.31,-5.86Q15.85,-5.52 16.15,-4.96Q16.46,-4.4 16.46,-3.77L16.46,0L15.3,0ZM11,0L11,-6.08L12.16,-6.08L12.16,0L11,0ZM20.84,0.13Q19.92,0.13 19.2,-0.28Q18.47,-0.7 18.05,-1.42Q17.63,-2.14 17.63,-3.04Q17.63,-3.94 18.04,-4.66Q18.45,-5.37 19.17,-5.79Q19.88,-6.21 20.76,-6.21Q21.6,-6.21 22.25,-5.82Q22.89,-5.44 23.26,-4.76Q23.63,-4.09 23.63,-3.22Q23.63,-3.09 23.62,-2.94Q23.6,-2.8 23.56,-2.61L18.44,-2.61L18.44,-3.57L22.95,-3.57L22.53,-3.2Q22.52,-3.81 22.31,-4.24Q22.1,-4.68 21.7,-4.91Q21.3,-5.15 20.74,-5.15Q20.14,-5.15 19.7,-4.89Q19.25,-4.63 19.01,-4.17Q18.76,-3.71 18.76,-3.08Q18.76,-2.44 19.02,-1.96Q19.28,-1.48 19.75,-1.22Q20.22,-0.95 20.84,-0.95Q21.35,-0.95 21.78,-1.14Q22.21,-1.32 22.51,-1.67L23.25,-0.92Q22.82,-0.41 22.18,-0.14Q21.55,0.13 20.84,0.13ZM27.54,0L27.54,-6.08L28.7,-6.08L28.7,0L27.54,0ZM28.7,-3.46L28.27,-3.66Q28.27,-4.82 28.8,-5.51Q29.34,-6.21 30.35,-6.21Q30.81,-6.21 31.18,-6.04Q31.55,-5.88 31.87,-5.52L31.11,-4.74Q30.92,-4.94 30.69,-5.03Q30.46,-5.12 30.15,-5.12Q29.52,-5.12 29.11,-4.71Q28.7,-4.3 28.7,-3.46ZM35.08,0.13Q34.23,0.13 33.56,-0.29Q32.88,-0.71 32.49,-1.42Q32.1,-2.14 32.1,-3.03Q32.1,-3.93 32.49,-4.64Q32.88,-5.36 33.56,-5.78Q34.23,-6.21 35.07,-6.21Q35.77,-6.21 36.31,-5.92Q36.85,-5.63 37.19,-5.12Q37.52,-4.61 37.55,-3.96L37.55,-2.13Q37.51,-1.47 37.19,-0.96Q36.86,-0.45 36.32,-0.16Q35.77,0.13 35.08,0.13ZM35.26,-0.96Q36.12,-0.96 36.64,-1.54Q37.17,-2.12 37.17,-3.04Q37.17,-3.65 36.93,-4.12Q36.69,-4.59 36.26,-4.85Q35.83,-5.12 35.25,-5.12Q34.68,-5.12 34.24,-4.85Q33.8,-4.59 33.54,-4.12Q33.29,-3.65 33.29,-3.04Q33.29,-2.43 33.54,-1.96Q33.8,-1.49 34.24,-1.23Q34.68,-0.96 35.26,-0.96ZM37.1,0L37.1,-1.63L37.31,-3.12L37.1,-4.59L37.1,-6.08L38.25,-6.08L38.25,0L37.1,0ZM42.5,0.13Q41.67,0.13 41,-0.29Q40.33,-0.71 39.94,-1.42Q39.55,-2.14 39.55,-3.03Q39.55,-3.93 39.94,-4.65Q40.33,-5.36 41,-5.79Q41.67,-6.21 42.5,-6.21Q43.19,-6.21 43.74,-5.92Q44.29,-5.64 44.63,-5.13Q44.97,-4.62 45,-3.96L45,-2.13Q44.97,-1.47 44.63,-0.96Q44.3,-0.45 43.75,-0.16Q43.2,0.13 42.5,0.13ZM42.69,-0.96Q43.27,-0.96 43.7,-1.23Q44.13,-1.49 44.37,-1.96Q44.62,-2.43 44.62,-3.04Q44.62,-3.65 44.37,-4.12Q44.13,-4.59 43.7,-4.85Q43.26,-5.12 42.69,-5.12Q42.12,-5.12 41.68,-4.85Q41.24,-4.59 40.99,-4.12Q40.74,-3.65 40.74,-3.04Q40.74,-2.43 40.99,-1.96Q41.24,-1.49 41.68,-1.23Q42.13,-0.96 42.69,-0.96ZM45.7,0L44.55,0L44.55,-1.63L44.76,-3.12L44.55,-4.59L44.55,-9.14L45.7,-9.14L45.7,0ZM47.39,0L47.39,-6.08L48.55,-6.08L48.55,0L47.39,0ZM47.97,-7.29Q47.66,-7.29 47.45,-7.51Q47.24,-7.72 47.24,-8.03Q47.24,-8.35 47.45,-8.56Q47.66,-8.77 47.97,-8.77Q48.29,-8.77 48.49,-8.56Q48.7,-8.35 48.7,-8.03Q48.7,-7.72 48.49,-7.51Q48.29,-7.29 47.97,-7.29ZM52.7,0.13Q51.95,0.13 51.36,-0.21Q50.76,-0.55 50.43,-1.15Q50.1,-1.75 50.1,-2.55L50.1,-6.08L51.25,-6.08L51.25,-2.6Q51.25,-2.1 51.43,-1.73Q51.6,-1.37 51.93,-1.18Q52.26,-0.98 52.71,-0.98Q53.39,-0.98 53.77,-1.41Q54.15,-1.84 54.15,-2.6L54.15,-6.08L55.31,-6.08L55.31,-2.54Q55.31,-1.75 54.98,-1.15Q54.65,-0.54 54.06,-0.21Q53.47,0.13 52.7,0.13ZM58.78,0.13Q58.28,0.13 57.82,-0.01Q57.36,-0.14 56.98,-0.39Q56.6,-0.63 56.32,-0.98L57.06,-1.72Q57.39,-1.32 57.83,-1.12Q58.27,-0.92 58.81,-0.92Q59.34,-0.92 59.64,-1.11Q59.93,-1.29 59.93,-1.63Q59.93,-1.96 59.69,-2.15Q59.46,-2.33 59.08,-2.45Q58.71,-2.57 58.3,-2.69Q57.88,-2.81 57.51,-3Q57.14,-3.19 56.9,-3.53Q56.67,-3.87 56.67,-4.42Q56.67,-4.97 56.93,-5.37Q57.2,-5.77 57.68,-5.99Q58.17,-6.21 58.84,-6.21Q59.55,-6.21 60.11,-5.96Q60.67,-5.7 61.03,-5.2L60.29,-4.46Q60.03,-4.8 59.65,-4.98Q59.28,-5.16 58.8,-5.16Q58.3,-5.16 58.04,-4.98Q57.77,-4.81 57.77,-4.51Q57.77,-4.2 58.01,-4.03Q58.24,-3.86 58.62,-3.75Q58.99,-3.64 59.4,-3.52Q59.81,-3.4 60.19,-3.19Q60.56,-2.99 60.8,-2.64Q61.03,-2.29 61.03,-1.73Q61.03,-0.87 60.42,-0.37Q59.82,0.13 58.78,0.13ZM65.92,0L65.92,-8.63L67.07,-8.63L67.07,0L65.92,0ZM64.42,-5.03L64.42,-6.08L68.56,-6.08L68.56,-5.03L64.42,-5.03ZM72.28,0.13Q71.39,0.13 70.67,-0.3Q69.95,-0.72 69.53,-1.44Q69.11,-2.17 69.11,-3.06Q69.11,-3.94 69.53,-4.65Q69.95,-5.36 70.67,-5.79Q71.39,-6.21 72.28,-6.21Q73.17,-6.21 73.89,-5.79Q74.6,-5.37 75.03,-4.66Q75.45,-3.94 75.45,-3.06Q75.45,-2.16 75.03,-1.44Q74.6,-0.72 73.89,-0.3Q73.17,0.13 72.28,0.13ZM72.28,-0.98Q72.85,-0.98 73.3,-1.25Q73.75,-1.52 74.01,-1.99Q74.26,-2.46 74.26,-3.06Q74.26,-3.65 74,-4.11Q73.74,-4.57 73.3,-4.83Q72.85,-5.1 72.28,-5.1Q71.71,-5.1 71.25,-4.83Q70.8,-4.57 70.55,-4.11Q70.29,-3.65 70.29,-3.06Q70.29,-2.46 70.55,-1.99Q70.8,-1.52 71.25,-1.25Q71.71,-0.98 72.28,-0.98ZM80.64,0L77.8,-3.11L80.61,-6.08L82,-6.08L78.87,-2.81L78.92,-3.47L82.13,0L80.64,0ZM76.75,0L76.75,-9.14L77.9,-9.14L77.9,0L76.75,0ZM85.59,0.13Q84.68,0.13 83.95,-0.28Q83.23,-0.7 82.8,-1.42Q82.38,-2.14 82.38,-3.04Q82.38,-3.94 82.8,-4.66Q83.21,-5.37 83.92,-5.79Q84.64,-6.21 85.51,-6.21Q86.36,-6.21 87,-5.82Q87.65,-5.44 88.02,-4.76Q88.39,-4.09 88.39,-3.22Q88.39,-3.09 88.37,-2.94Q88.36,-2.8 88.32,-2.61L83.19,-2.61L83.19,-3.57L87.71,-3.57L87.29,-3.2Q87.28,-3.81 87.07,-4.24Q86.85,-4.68 86.45,-4.91Q86.06,-5.15 85.49,-5.15Q84.9,-5.15 84.45,-4.89Q84.01,-4.63 83.76,-4.17Q83.52,-3.71 83.52,-3.08Q83.52,-2.44 83.78,-1.96Q84.04,-1.48 84.51,-1.22Q84.98,-0.95 85.59,-0.95Q86.1,-0.95 86.53,-1.14Q86.97,-1.32 87.27,-1.67L88.01,-0.92Q87.57,-0.41 86.94,-0.14Q86.31,0.13 85.59,0.13ZM93.93,0L93.93,-3.54Q93.93,-4.24 93.5,-4.68Q93.07,-5.13 92.38,-5.13Q91.91,-5.13 91.56,-4.93Q91.2,-4.72 90.99,-4.36Q90.79,-4.01 90.79,-3.54L90.31,-3.81Q90.31,-4.51 90.62,-5.04Q90.93,-5.58 91.48,-5.9Q92.03,-6.21 92.72,-6.21Q93.41,-6.21 93.94,-5.86Q94.48,-5.52 94.78,-4.96Q95.09,-4.4 95.09,-3.77L95.09,0L93.93,0ZM89.64,0L89.64,-6.08L90.79,-6.08L90.79,0L89.64,0ZM99.31,-2.78L99.31,-3.73L108.46,-3.73L108.46,-2.78L99.31,-2.78ZM115.66,0.13Q114.77,0.13 114.04,-0.29Q113.32,-0.71 112.9,-1.43Q112.49,-2.16 112.49,-3.05Q112.49,-3.94 112.9,-4.66Q113.32,-5.37 114.04,-5.79Q114.77,-6.21 115.66,-6.21Q116.36,-6.21 116.97,-5.94Q117.57,-5.68 118,-5.19L117.24,-4.42Q116.95,-4.75 116.55,-4.92Q116.14,-5.1 115.66,-5.1Q115.08,-5.1 114.63,-4.83Q114.18,-4.57 113.93,-4.11Q113.67,-3.65 113.67,-3.05Q113.67,-2.45 113.93,-1.98Q114.18,-1.52 114.63,-1.25Q115.08,-0.98 115.66,-0.98Q116.14,-0.98 116.55,-1.16Q116.96,-1.33 117.25,-1.66L118.01,-0.9Q117.58,-0.4 116.97,-0.14Q116.36,0.13 115.66,0.13ZM121.62,0.13Q120.77,0.13 120.1,-0.29Q119.42,-0.71 119.03,-1.42Q118.64,-2.14 118.64,-3.03Q118.64,-3.93 119.03,-4.64Q119.42,-5.36 120.1,-5.78Q120.77,-6.21 121.61,-6.21Q122.31,-6.21 122.85,-5.92Q123.4,-5.63 123.73,-5.12Q124.06,-4.61 124.09,-3.96L124.09,-2.13Q124.05,-1.47 123.73,-0.96Q123.4,-0.45 122.86,-0.16Q122.31,0.13 121.62,0.13ZM121.8,-0.96Q122.66,-0.96 123.19,-1.54Q123.71,-2.12 123.71,-3.04Q123.71,-3.65 123.47,-4.12Q123.23,-4.59 122.8,-4.85Q122.37,-5.12 121.8,-5.12Q121.22,-5.12 120.78,-4.85Q120.34,-4.59 120.08,-4.12Q119.83,-3.65 119.83,-3.04Q119.83,-2.43 120.08,-1.96Q120.34,-1.49 120.78,-1.23Q121.23,-0.96 121.8,-0.96ZM123.64,0L123.64,-1.63L123.85,-3.12L123.64,-4.59L123.64,-6.08L124.79,-6.08L124.79,0L123.64,0ZM126.47,0L126.47,-6.08L127.63,-6.08L127.63,0L126.47,0ZM127.63,-3.46L127.2,-3.66Q127.2,-4.82 127.73,-5.51Q128.27,-6.21 129.28,-6.21Q129.74,-6.21 130.11,-6.04Q130.48,-5.88 130.8,-5.52L130.04,-4.74Q129.85,-4.94 129.62,-5.03Q129.39,-5.12 129.08,-5.12Q128.45,-5.12 128.04,-4.71Q127.63,-4.3 127.63,-3.46ZM133.98,0.13Q133.15,0.13 132.48,-0.29Q131.81,-0.71 131.42,-1.42Q131.03,-2.14 131.03,-3.03Q131.03,-3.93 131.42,-4.65Q131.81,-5.36 132.48,-5.79Q133.15,-6.21 133.98,-6.21Q134.67,-6.21 135.22,-5.92Q135.77,-5.64 136.11,-5.13Q136.45,-4.62 136.49,-3.96L136.49,-2.13Q136.45,-1.47 136.12,-0.96Q135.78,-0.45 135.23,-0.16Q134.68,0.13 133.98,0.13ZM134.18,-0.96Q134.75,-0.96 135.18,-1.23Q135.61,-1.49 135.86,-1.96Q136.1,-2.43 136.1,-3.04Q136.1,-3.65 135.85,-4.12Q135.61,-4.59 135.18,-4.85Q134.75,-5.12 134.17,-5.12Q133.6,-5.12 133.16,-4.85Q132.72,-4.59 132.47,-4.12Q132.22,-3.65 132.22,-3.04Q132.22,-2.43 132.47,-1.96Q132.72,-1.49 133.16,-1.23Q133.61,-0.96 134.18,-0.96ZM137.18,0L136.03,0L136.03,-1.63L136.24,-3.12L136.03,-4.59L136.03,-9.14L137.18,-9.14L137.18,0ZM140.79,0.13Q140.29,0.13 139.83,-0.01Q139.37,-0.14 138.99,-0.39Q138.61,-0.63 138.33,-0.98L139.07,-1.72Q139.4,-1.32 139.84,-1.12Q140.28,-0.92 140.82,-0.92Q141.35,-0.92 141.64,-1.11Q141.94,-1.29 141.94,-1.63Q141.94,-1.96 141.7,-2.15Q141.47,-2.33 141.09,-2.45Q140.72,-2.57 140.31,-2.69Q139.89,-2.81 139.52,-3Q139.15,-3.19 138.91,-3.53Q138.68,-3.87 138.68,-4.42Q138.68,-4.97 138.94,-5.37Q139.21,-5.77 139.69,-5.99Q140.18,-6.21 140.85,-6.21Q141.56,-6.21 142.12,-5.96Q142.68,-5.7 143.04,-5.2L142.3,-4.46Q142.04,-4.8 141.66,-4.98Q141.29,-5.16 140.81,-5.16Q140.31,-5.16 140.05,-4.98Q139.78,-4.81 139.78,-4.51Q139.78,-4.2 140.02,-4.03Q140.25,-3.86 140.63,-3.75Q141,-3.64 141.41,-3.52Q141.82,-3.4 142.2,-3.19Q142.57,-2.99 142.8,-2.64Q143.04,-2.29 143.04,-1.73Q143.04,-0.87 142.43,-0.37Q141.83,0.13 140.79,0.13ZM144.39,1.41L145.19,-0.12L145.59,-0.22Q145.53,-0.08 145.43,0.01Q145.34,0.1 145.2,0.1Q144.93,0.1 144.71,-0.12Q144.48,-0.34 144.48,-0.68Q144.48,-1.04 144.73,-1.3Q144.98,-1.55 145.34,-1.55Q145.68,-1.55 145.93,-1.3Q146.19,-1.04 146.19,-0.68Q146.19,-0.53 146.13,-0.34Q146.07,-0.14 145.91,0.17L145.06,1.77L144.39,1.41ZM153.71,0.13Q153.02,0.13 152.47,-0.16Q151.91,-0.45 151.58,-0.96Q151.25,-1.47 151.21,-2.13L151.21,-3.96Q151.25,-4.62 151.59,-5.13Q151.93,-5.64 152.48,-5.92Q153.03,-6.21 153.71,-6.21Q154.55,-6.21 155.22,-5.79Q155.88,-5.36 156.27,-4.65Q156.66,-3.93 156.66,-3.03Q156.66,-2.14 156.28,-1.42Q155.89,-0.71 155.22,-0.29Q154.55,0.13 153.71,0.13ZM150.51,0L150.51,-9.14L151.67,-9.14L151.67,-4.59L151.45,-3.12L151.67,-1.63L151.67,0L150.51,0ZM153.52,-0.96Q154.1,-0.96 154.53,-1.23Q154.97,-1.49 155.22,-1.96Q155.48,-2.43 155.48,-3.04Q155.48,-3.65 155.22,-4.12Q154.97,-4.59 154.54,-4.85Q154.1,-5.12 153.53,-5.12Q152.96,-5.12 152.52,-4.85Q152.08,-4.59 151.84,-4.12Q151.6,-3.65 151.6,-3.04Q151.6,-2.43 151.84,-1.96Q152.08,-1.49 152.52,-1.23Q152.95,-0.96 153.52,-0.96ZM160.42,0.13Q159.66,0.13 159.07,-0.21Q158.47,-0.55 158.14,-1.15Q157.81,-1.75 157.81,-2.55L157.81,-6.08L158.97,-6.08L158.97,-2.6Q158.97,-2.1 159.14,-1.73Q159.31,-1.37 159.64,-1.18Q159.97,-0.98 160.42,-0.98Q161.1,-0.98 161.48,-1.41Q161.87,-1.84 161.87,-2.6L161.87,-6.08L163.02,-6.08L163.02,-2.54Q163.02,-1.75 162.69,-1.15Q162.36,-0.54 161.77,-0.21Q161.18,0.13 160.42,0.13ZM165.5,0L165.5,-8.63L166.66,-8.63L166.66,0L165.5,0ZM164.01,-5.03L164.01,-6.08L171.77,-6.08L171.77,-5.03L164.01,-5.03ZM169.12,0L169.12,-8.63L170.28,-8.63L170.28,0L169.12,0ZM175.48,0.13Q174.6,0.13 173.88,-0.3Q173.16,-0.72 172.74,-1.44Q172.31,-2.17 172.31,-3.06Q172.31,-3.94 172.74,-4.65Q173.16,-5.36 173.88,-5.79Q174.6,-6.21 175.48,-6.21Q176.37,-6.21 177.09,-5.79Q177.81,-5.37 178.23,-4.66Q178.66,-3.94 178.66,-3.06Q178.66,-2.16 178.23,-1.44Q177.81,-0.72 177.09,-0.3Q176.37,0.13 175.48,0.13ZM175.48,-0.98Q176.06,-0.98 176.51,-1.25Q176.96,-1.52 177.21,-1.99Q177.47,-2.46 177.47,-3.06Q177.47,-3.65 177.21,-4.11Q176.95,-4.57 176.51,-4.83Q176.06,-5.1 175.48,-5.1Q174.91,-5.1 174.46,-4.83Q174.01,-4.57 173.76,-4.11Q173.5,-3.65 173.5,-3.06Q173.5,-2.46 173.76,-1.99Q174.01,-1.52 174.46,-1.25Q174.91,-0.98 175.48,-0.98ZM184.25,0L184.25,-3.54Q184.25,-4.24 183.82,-4.68Q183.39,-5.13 182.7,-5.13Q182.23,-5.13 181.87,-4.93Q181.51,-4.72 181.31,-4.36Q181.11,-4.01 181.11,-3.54L180.63,-3.81Q180.63,-4.51 180.94,-5.04Q181.25,-5.58 181.8,-5.9Q182.34,-6.21 183.03,-6.21Q183.72,-6.21 184.26,-5.86Q184.8,-5.52 185.1,-4.96Q185.4,-4.4 185.4,-3.77L185.4,0L184.25,0ZM179.95,0L179.95,-6.08L181.11,-6.08L181.11,0L179.95,0ZM188.9,0.13Q188.39,0.13 187.93,-0.01Q187.48,-0.14 187.09,-0.39Q186.71,-0.63 186.43,-0.98L187.17,-1.72Q187.5,-1.32 187.94,-1.12Q188.38,-0.92 188.92,-0.92Q189.46,-0.92 189.75,-1.11Q190.04,-1.29 190.04,-1.63Q190.04,-1.96 189.8,-2.15Q189.57,-2.33 189.2,-2.45Q188.82,-2.57 188.41,-2.69Q188,-2.81 187.62,-3Q187.25,-3.19 187.02,-3.53Q186.78,-3.87 186.78,-4.42Q186.78,-4.97 187.04,-5.37Q187.31,-5.77 187.79,-5.99Q188.28,-6.21 188.95,-6.21Q189.66,-6.21 190.22,-5.96Q190.78,-5.7 191.14,-5.2L190.4,-4.46Q190.14,-4.8 189.76,-4.98Q189.39,-5.16 188.91,-5.16Q188.42,-5.16 188.15,-4.98Q187.88,-4.81 187.88,-4.51Q187.88,-4.2 188.12,-4.03Q188.36,-3.86 188.73,-3.75Q189.1,-3.64 189.51,-3.52Q189.93,-3.4 190.3,-3.19Q190.67,-2.99 190.91,-2.64Q191.14,-2.29 191.14,-1.73Q191.14,-0.87 190.54,-0.37Q189.93,0.13 188.9,0.13ZM197.69,0.13Q196.84,0.13 196.17,-0.29Q195.49,-0.71 195.1,-1.42Q194.71,-2.14 194.71,-3.03Q194.71,-3.93 195.1,-4.64Q195.49,-5.36 196.17,-5.78Q196.84,-6.21 197.68,-6.21Q198.38,-6.21 198.92,-5.92Q199.47,-5.63 199.8,-5.12Q200.13,-4.61 200.16,-3.96L200.16,-2.13Q200.12,-1.47 199.8,-0.96Q199.47,-0.45 198.93,-0.16Q198.38,0.13 197.69,0.13ZM197.87,-0.96Q198.73,-0.96 199.26,-1.54Q199.78,-2.12 199.78,-3.04Q199.78,-3.65 199.54,-4.12Q199.3,-4.59 198.87,-4.85Q198.44,-5.12 197.87,-5.12Q197.29,-5.12 196.85,-4.85Q196.41,-4.59 196.15,-4.12Q195.9,-3.65 195.9,-3.04Q195.9,-2.43 196.15,-1.96Q196.41,-1.49 196.85,-1.23Q197.3,-0.96 197.87,-0.96ZM199.71,0L199.71,-1.63L199.92,-3.12L199.71,-4.59L199.71,-6.08L200.86,-6.08L200.86,0L199.71,0ZM206.84,0L206.84,-3.54Q206.84,-4.24 206.41,-4.68Q205.98,-5.13 205.29,-5.13Q204.82,-5.13 204.46,-4.93Q204.11,-4.72 203.9,-4.36Q203.7,-4.01 203.7,-3.54L203.22,-3.81Q203.22,-4.51 203.53,-5.04Q203.84,-5.58 204.39,-5.9Q204.94,-6.21 205.63,-6.21Q206.32,-6.21 206.85,-5.86Q207.39,-5.52 207.69,-4.96Q208,-4.4 208,-3.77L208,0L206.84,0ZM202.54,0L202.54,-6.08L203.7,-6.08L203.7,0L202.54,0ZM212.13,0.13Q211.29,0.13 210.62,-0.29Q209.96,-0.71 209.57,-1.42Q209.18,-2.14 209.18,-3.03Q209.18,-3.93 209.57,-4.65Q209.96,-5.36 210.62,-5.79Q211.29,-6.21 212.13,-6.21Q212.82,-6.21 213.36,-5.92Q213.91,-5.64 214.25,-5.13Q214.6,-4.62 214.63,-3.96L214.63,-2.13Q214.59,-1.47 214.26,-0.96Q213.93,-0.45 213.37,-0.16Q212.82,0.13 212.13,0.13ZM212.32,-0.96Q212.9,-0.96 213.33,-1.23Q213.76,-1.49 214,-1.96Q214.24,-2.43 214.24,-3.04Q214.24,-3.65 214,-4.12Q213.75,-4.59 213.32,-4.85Q212.89,-5.12 212.32,-5.12Q211.74,-5.12 211.3,-4.85Q210.87,-4.59 210.62,-4.12Q210.36,-3.65 210.36,-3.04Q210.36,-2.43 210.62,-1.96Q210.87,-1.49 211.31,-1.23Q211.75,-0.96 212.32,-0.96ZM215.33,0L214.17,0L214.17,-1.63L214.39,-3.12L214.17,-4.59L214.17,-9.14L215.33,-9.14L215.33,0ZM222.87,0.13Q222.18,0.13 221.62,-0.16Q221.07,-0.45 220.74,-0.96Q220.41,-1.47 220.37,-2.13L220.37,-3.96Q220.41,-4.62 220.75,-5.13Q221.08,-5.64 221.64,-5.92Q222.19,-6.21 222.87,-6.21Q223.71,-6.21 224.37,-5.79Q225.04,-5.36 225.43,-4.65Q225.82,-3.93 225.82,-3.03Q225.82,-2.14 225.43,-1.42Q225.05,-0.71 224.38,-0.29Q223.71,0.13 222.87,0.13ZM219.67,2.55L219.67,-6.08L220.83,-6.08L220.83,-4.48L220.61,-3L220.83,-1.53L220.83,2.55L219.67,2.55ZM222.68,-0.96Q223.25,-0.96 223.69,-1.23Q224.13,-1.49 224.38,-1.96Q224.63,-2.43 224.63,-3.04Q224.63,-3.65 224.38,-4.12Q224.13,-4.59 223.69,-4.85Q223.26,-5.12 222.69,-5.12Q222.12,-5.12 221.68,-4.85Q221.24,-4.59 221,-4.12Q220.76,-3.65 220.76,-3.04Q220.76,-2.43 221,-1.96Q221.24,-1.49 221.68,-1.23Q222.11,-0.96 222.68,-0.96ZM229.71,0.13Q228.87,0.13 228.2,-0.29Q227.52,-0.71 227.13,-1.42Q226.74,-2.14 226.74,-3.03Q226.74,-3.93 227.13,-4.64Q227.52,-5.36 228.19,-5.78Q228.87,-6.21 229.71,-6.21Q230.4,-6.21 230.95,-5.92Q231.49,-5.63 231.82,-5.12Q232.15,-4.61 232.19,-3.96L232.19,-2.13Q232.15,-1.47 231.82,-0.96Q231.5,-0.45 230.95,-0.16Q230.41,0.13 229.71,0.13ZM229.9,-0.96Q230.76,-0.96 231.28,-1.54Q231.8,-2.12 231.8,-3.04Q231.8,-3.65 231.57,-4.12Q231.33,-4.59 230.9,-4.85Q230.47,-5.12 229.89,-5.12Q229.32,-5.12 228.87,-4.85Q228.43,-4.59 228.18,-4.12Q227.92,-3.65 227.92,-3.04Q227.92,-2.43 228.18,-1.96Q228.43,-1.49 228.88,-1.23Q229.32,-0.96 229.9,-0.96ZM231.73,0L231.73,-1.63L231.95,-3.12L231.73,-4.59L231.73,-6.08L232.89,-6.08L232.89,0L231.73,0ZM238.87,0L238.87,-3.54Q238.87,-4.24 238.44,-4.68Q238.01,-5.13 237.32,-5.13Q236.85,-5.13 236.49,-4.93Q236.13,-4.72 235.93,-4.36Q235.72,-4.01 235.72,-3.54L235.24,-3.81Q235.24,-4.51 235.56,-5.04Q235.87,-5.58 236.42,-5.9Q236.96,-6.21 237.65,-6.21Q238.34,-6.21 238.88,-5.86Q239.41,-5.52 239.72,-4.96Q240.02,-4.4 240.02,-3.77L240.02,0L238.87,0ZM234.57,0L234.57,-6.08L235.72,-6.08L235.72,0L234.57,0ZM244.4,0.13Q243.49,0.13 242.76,-0.28Q242.04,-0.7 241.61,-1.42Q241.19,-2.14 241.19,-3.04Q241.19,-3.94 241.6,-4.66Q242.02,-5.37 242.73,-5.79Q243.45,-6.21 244.32,-6.21Q245.16,-6.21 245.81,-5.82Q246.46,-5.44 246.83,-4.76Q247.2,-4.09 247.2,-3.22Q247.2,-3.09 247.18,-2.94Q247.16,-2.8 247.13,-2.61L242,-2.61L242,-3.57L246.52,-3.57L246.1,-3.2Q246.09,-3.81 245.88,-4.24Q245.66,-4.68 245.26,-4.91Q244.87,-5.15 244.3,-5.15Q243.71,-5.15 243.26,-4.89Q242.82,-4.63 242.57,-4.17Q242.33,-3.71 242.33,-3.08Q242.33,-2.44 242.59,-1.96Q242.84,-1.48 243.32,-1.22Q243.79,-0.95 244.4,-0.95Q244.91,-0.95 245.34,-1.14Q245.78,-1.32 246.08,-1.67L246.82,-0.92Q246.38,-0.41 245.75,-0.14Q245.12,0.13 244.4,0.13ZM248.44,0L248.44,-9.14L249.6,-9.14L249.6,0L248.44,0ZM253.22,0.13Q252.71,0.13 252.25,-0.01Q251.8,-0.14 251.41,-0.39Q251.03,-0.63 250.75,-0.98L251.49,-1.72Q251.82,-1.32 252.26,-1.12Q252.7,-0.92 253.24,-0.92Q253.78,-0.92 254.07,-1.11Q254.36,-1.29 254.36,-1.63Q254.36,-1.96 254.12,-2.15Q253.89,-2.33 253.52,-2.45Q253.14,-2.57 252.73,-2.69Q252.32,-2.81 251.94,-3Q251.57,-3.19 251.34,-3.53Q251.1,-3.87 251.1,-4.42Q251.1,-4.97 251.36,-5.37Q251.63,-5.77 252.11,-5.99Q252.6,-6.21 253.27,-6.21Q253.98,-6.21 254.54,-5.96Q255.1,-5.7 255.46,-5.2L254.72,-4.46Q254.46,-4.8 254.08,-4.98Q253.71,-5.16 253.23,-5.16Q252.74,-5.16 252.47,-4.98Q252.2,-4.81 252.2,-4.51Q252.2,-4.2 252.44,-4.03Q252.68,-3.86 253.05,-3.75Q253.42,-3.64 253.83,-3.52Q254.25,-3.4 254.62,-3.19Q254.99,-2.99 255.23,-2.64Q255.46,-2.29 255.46,-1.73Q255.46,-0.87 254.86,-0.37Q254.25,0.13 253.22,0.13ZM262.01,0.13Q261.16,0.13 260.49,-0.29Q259.81,-0.71 259.42,-1.42Q259.03,-2.14 259.03,-3.03Q259.03,-3.93 259.42,-4.64Q259.81,-5.36 260.49,-5.78Q261.16,-6.21 262,-6.21Q262.7,-6.21 263.24,-5.92Q263.79,-5.63 264.12,-5.12Q264.45,-4.61 264.48,-3.96L264.48,-2.13Q264.44,-1.47 264.12,-0.96Q263.79,-0.45 263.25,-0.16Q262.7,0.13 262.01,0.13ZM262.19,-0.96Q263.05,-0.96 263.58,-1.54Q264.1,-2.12 264.1,-3.04Q264.1,-3.65 263.86,-4.12Q263.62,-4.59 263.19,-4.85Q262.76,-5.12 262.19,-5.12Q261.61,-5.12 261.17,-4.85Q260.73,-4.59 260.47,-4.12Q260.22,-3.65 260.22,-3.04Q260.22,-2.43 260.47,-1.96Q260.73,-1.49 261.17,-1.23Q261.62,-0.96 262.19,-0.96ZM264.03,0L264.03,-1.63L264.24,-3.12L264.03,-4.59L264.03,-6.08L265.18,-6.08L265.18,0L264.03,0ZM269.65,0.13Q268.75,0.13 268.03,-0.29Q267.31,-0.71 266.89,-1.43Q266.47,-2.16 266.47,-3.05Q266.47,-3.94 266.89,-4.66Q267.31,-5.37 268.03,-5.79Q268.75,-6.21 269.65,-6.21Q270.35,-6.21 270.95,-5.94Q271.56,-5.68 271.98,-5.19L271.22,-4.42Q270.93,-4.75 270.53,-4.92Q270.12,-5.1 269.65,-5.1Q269.07,-5.1 268.62,-4.83Q268.17,-4.57 267.91,-4.11Q267.66,-3.65 267.66,-3.05Q267.66,-2.45 267.91,-1.98Q268.17,-1.52 268.62,-1.25Q269.07,-0.98 269.65,-0.98Q270.13,-0.98 270.53,-1.16Q270.94,-1.33 271.23,-1.66L271.99,-0.9Q271.56,-0.4 270.95,-0.14Q270.35,0.13 269.65,0.13ZM273.12,0L273.12,-6.08L274.28,-6.08L274.28,0L273.12,0ZM274.28,-3.46L273.85,-3.66Q273.85,-4.82 274.38,-5.51Q274.92,-6.21 275.93,-6.21Q276.39,-6.21 276.76,-6.04Q277.13,-5.88 277.45,-5.52L276.69,-4.74Q276.5,-4.94 276.27,-5.03Q276.04,-5.12 275.73,-5.12Q275.1,-5.12 274.69,-4.71Q274.28,-4.3 274.28,-3.46ZM280.84,0.13Q279.95,0.13 279.23,-0.3Q278.52,-0.72 278.09,-1.44Q277.67,-2.17 277.67,-3.06Q277.67,-3.94 278.09,-4.65Q278.52,-5.36 279.23,-5.79Q279.95,-6.21 280.84,-6.21Q281.73,-6.21 282.45,-5.79Q283.17,-5.37 283.59,-4.66Q284.01,-3.94 284.01,-3.06Q284.01,-2.16 283.59,-1.44Q283.17,-0.72 282.45,-0.3Q281.73,0.13 280.84,0.13ZM280.84,-0.98Q281.42,-0.98 281.87,-1.25Q282.32,-1.52 282.57,-1.99Q282.83,-2.46 282.83,-3.06Q282.83,-3.65 282.57,-4.11Q282.31,-4.57 281.86,-4.83Q281.42,-5.1 280.84,-5.1Q280.27,-5.1 279.82,-4.83Q279.37,-4.57 279.11,-4.11Q278.86,-3.65 278.86,-3.06Q278.86,-2.46 279.11,-1.99Q279.37,-1.52 279.82,-1.25Q280.27,-0.98 280.84,-0.98ZM287.24,0.13Q286.74,0.13 286.28,-0.01Q285.82,-0.14 285.44,-0.39Q285.06,-0.63 284.77,-0.98L285.51,-1.72Q285.85,-1.32 286.28,-1.12Q286.72,-0.92 287.26,-0.92Q287.8,-0.92 288.09,-1.11Q288.38,-1.29 288.38,-1.63Q288.38,-1.96 288.15,-2.15Q287.91,-2.33 287.54,-2.45Q287.16,-2.57 286.75,-2.69Q286.34,-2.81 285.97,-3Q285.59,-3.19 285.36,-3.53Q285.12,-3.87 285.12,-4.42Q285.12,-4.97 285.39,-5.37Q285.65,-5.77 286.14,-5.99Q286.62,-6.21 287.29,-6.21Q288.01,-6.21 288.56,-5.96Q289.12,-5.7 289.48,-5.2L288.75,-4.46Q288.48,-4.8 288.11,-4.98Q287.73,-5.16 287.25,-5.16Q286.76,-5.16 286.49,-4.98Q286.23,-4.81 286.23,-4.51Q286.23,-4.2 286.46,-4.03Q286.7,-3.86 287.07,-3.75Q287.44,-3.64 287.86,-3.52Q288.27,-3.4 288.64,-3.19Q289.01,-2.99 289.25,-2.64Q289.48,-2.29 289.48,-1.73Q289.48,-0.87 288.88,-0.37Q288.27,0.13 287.24,0.13ZM292.7,0.13Q292.2,0.13 291.74,-0.01Q291.28,-0.14 290.9,-0.39Q290.52,-0.63 290.24,-0.98L290.98,-1.72Q291.31,-1.32 291.75,-1.12Q292.19,-0.92 292.73,-0.92Q293.26,-0.92 293.56,-1.11Q293.85,-1.29 293.85,-1.63Q293.85,-1.96 293.61,-2.15Q293.38,-2.33 293,-2.45Q292.63,-2.57 292.22,-2.69Q291.8,-2.81 291.43,-3Q291.06,-3.19 290.82,-3.53Q290.59,-3.87 290.59,-4.42Q290.59,-4.97 290.85,-5.37Q291.12,-5.77 291.6,-5.99Q292.09,-6.21 292.76,-6.21Q293.47,-6.21 294.03,-5.96Q294.59,-5.7 294.95,-5.2L294.21,-4.46Q293.95,-4.8 293.57,-4.98Q293.2,-5.16 292.72,-5.16Q292.22,-5.16 291.96,-4.98Q291.69,-4.81 291.69,-4.51Q291.69,-4.2 291.93,-4.03Q292.16,-3.86 292.54,-3.75Q292.91,-3.64 293.32,-3.52Q293.73,-3.4 294.11,-3.19Q294.48,-2.99 294.72,-2.64Q294.95,-2.29 294.95,-1.73Q294.95,-0.87 294.34,-0.37Q293.74,0.13 292.7,0.13ZM299.84,0L299.84,-8.63L300.99,-8.63L300.99,0L299.84,0ZM298.34,-5.03L298.34,-6.08L302.48,-6.08L302.48,-5.03L298.34,-5.03ZM307.91,0L307.91,-3.54Q307.91,-4.24 307.48,-4.68Q307.05,-5.13 306.36,-5.13Q305.89,-5.13 305.53,-4.93Q305.17,-4.72 304.97,-4.36Q304.77,-4.01 304.77,-3.54L304.29,-3.81Q304.29,-4.51 304.6,-5.04Q304.91,-5.58 305.46,-5.9Q306,-6.21 306.7,-6.21Q307.39,-6.21 307.92,-5.9Q308.46,-5.59 308.76,-5.04Q309.07,-4.49 309.07,-3.77L309.07,0L307.91,0ZM303.61,0L303.61,-9.14L304.77,-9.14L304.77,0L303.61,0ZM313.44,0.13Q312.53,0.13 311.8,-0.28Q311.08,-0.7 310.66,-1.42Q310.23,-2.14 310.23,-3.04Q310.23,-3.94 310.65,-4.66Q311.06,-5.37 311.78,-5.79Q312.49,-6.21 313.37,-6.21Q314.21,-6.21 314.85,-5.82Q315.5,-5.44 315.87,-4.76Q316.24,-4.09 316.24,-3.22Q316.24,-3.09 316.22,-2.94Q316.21,-2.8 316.17,-2.61L311.04,-2.61L311.04,-3.57L315.56,-3.57L315.14,-3.2Q315.13,-3.81 314.92,-4.24Q314.7,-4.68 314.31,-4.91Q313.91,-5.15 313.34,-5.15Q312.75,-5.15 312.31,-4.89Q311.86,-4.63 311.62,-4.17Q311.37,-3.71 311.37,-3.08Q311.37,-2.44 311.63,-1.96Q311.89,-1.48 312.36,-1.22Q312.83,-0.95 313.45,-0.95Q313.96,-0.95 314.39,-1.14Q314.82,-1.32 315.12,-1.67L315.86,-0.92Q315.42,-0.41 314.79,-0.14Q314.16,0.13 313.44,0.13ZM322.74,0.13Q321.9,0.13 321.23,-0.29Q320.55,-0.71 320.16,-1.42Q319.77,-2.14 319.77,-3.03Q319.77,-3.93 320.16,-4.64Q320.55,-5.36 321.22,-5.78Q321.9,-6.21 322.74,-6.21Q323.43,-6.21 323.98,-5.92Q324.52,-5.63 324.85,-5.12Q325.18,-4.61 325.22,-3.96L325.22,-2.13Q325.18,-1.47 324.85,-0.96Q324.53,-0.45 323.98,-0.16Q323.44,0.13 322.74,0.13ZM322.93,-0.96Q323.79,-0.96 324.31,-1.54Q324.84,-2.12 324.84,-3.04Q324.84,-3.65 324.6,-4.12Q324.36,-4.59 323.93,-4.85Q323.5,-5.12 322.92,-5.12Q322.35,-5.12 321.9,-4.85Q321.46,-4.59 321.21,-4.12Q320.95,-3.65 320.95,-3.04Q320.95,-2.43 321.21,-1.96Q321.46,-1.49 321.91,-1.23Q322.35,-0.96 322.93,-0.96ZM324.76,0L324.76,-1.63L324.98,-3.12L324.76,-4.59L324.76,-6.08L325.92,-6.08L325.92,0L324.76,0ZM330.8,0.13Q330.11,0.13 329.55,-0.16Q329,-0.45 328.67,-0.96Q328.34,-1.47 328.3,-2.13L328.3,-3.96Q328.34,-4.62 328.68,-5.13Q329.01,-5.64 329.57,-5.92Q330.12,-6.21 330.8,-6.21Q331.64,-6.21 332.3,-5.79Q332.97,-5.36 333.36,-4.65Q333.75,-3.93 333.75,-3.03Q333.75,-2.14 333.36,-1.42Q332.98,-0.71 332.31,-0.29Q331.64,0.13 330.8,0.13ZM327.6,2.55L327.6,-6.08L328.76,-6.08L328.76,-4.48L328.54,-3L328.76,-1.53L328.76,2.55L327.6,2.55ZM330.61,-0.96Q331.18,-0.96 331.62,-1.23Q332.06,-1.49 332.31,-1.96Q332.56,-2.43 332.56,-3.04Q332.56,-3.65 332.31,-4.12Q332.06,-4.59 331.62,-4.85Q331.19,-5.12 330.62,-5.12Q330.05,-5.12 329.61,-4.85Q329.17,-4.59 328.93,-4.12Q328.68,-3.65 328.68,-3.04Q328.68,-2.43 328.93,-1.96Q329.17,-1.49 329.6,-1.23Q330.04,-0.96 330.61,-0.96ZM338.25,0.13Q337.56,0.13 337,-0.16Q336.45,-0.45 336.12,-0.96Q335.79,-1.47 335.75,-2.13L335.75,-3.96Q335.79,-4.62 336.12,-5.13Q336.46,-5.64 337.02,-5.92Q337.57,-6.21 338.25,-6.21Q339.08,-6.21 339.75,-5.79Q340.42,-5.36 340.81,-4.65Q341.2,-3.93 341.2,-3.03Q341.2,-2.14 340.81,-1.42Q340.43,-0.71 339.76,-0.29Q339.08,0.13 338.25,0.13ZM335.05,2.55L335.05,-6.08L336.2,-6.08L336.2,-4.48L335.99,-3L336.2,-1.53L336.2,2.55L335.05,2.55ZM338.06,-0.96Q338.63,-0.96 339.07,-1.23Q339.51,-1.49 339.76,-1.96Q340.01,-2.43 340.01,-3.04Q340.01,-3.65 339.76,-4.12Q339.51,-4.59 339.07,-4.85Q338.64,-5.12 338.07,-5.12Q337.5,-5.12 337.06,-4.85Q336.62,-4.59 336.38,-4.12Q336.13,-3.65 336.13,-3.04Q336.13,-2.43 336.38,-1.96Q336.62,-1.49 337.05,-1.23Q337.49,-0.96 338.06,-0.96ZM347.15,1.49Q346.44,0.89 345.94,0.03Q345.44,-0.83 345.18,-1.86Q344.91,-2.88 344.91,-3.98Q344.91,-5.08 345.18,-6.1Q345.44,-7.13 345.94,-7.99Q346.44,-8.85 347.15,-9.45L347.81,-8.85Q346.9,-8.05 346.41,-6.79Q345.92,-5.54 345.92,-3.98Q345.92,-2.44 346.41,-1.18Q346.9,0.08 347.81,0.89L347.15,1.49ZM351.63,0.13Q350.79,0.13 350.12,-0.29Q349.44,-0.71 349.05,-1.42Q348.66,-2.14 348.66,-3.03Q348.66,-3.93 349.05,-4.64Q349.44,-5.36 350.11,-5.78Q350.79,-6.21 351.63,-6.21Q352.32,-6.21 352.87,-5.92Q353.41,-5.63 353.74,-5.12Q354.07,-4.61 354.11,-3.96L354.11,-2.13Q354.07,-1.47 353.74,-0.96Q353.42,-0.45 352.87,-0.16Q352.33,0.13 351.63,0.13ZM351.82,-0.96Q352.68,-0.96 353.2,-1.54Q353.72,-2.12 353.72,-3.04Q353.72,-3.65 353.49,-4.12Q353.25,-4.59 352.82,-4.85Q352.39,-5.12 351.81,-5.12Q351.24,-5.12 350.79,-4.85Q350.35,-4.59 350.1,-4.12Q349.84,-3.65 349.84,-3.04Q349.84,-2.43 350.1,-1.96Q350.35,-1.49 350.8,-1.23Q351.24,-0.96 351.82,-0.96ZM353.65,0L353.65,-1.63L353.87,-3.12L353.65,-4.59L353.65,-6.08L354.81,-6.08L354.81,0L353.65,0ZM360.79,0L360.79,-3.54Q360.79,-4.24 360.36,-4.68Q359.93,-5.13 359.24,-5.13Q358.77,-5.13 358.41,-4.93Q358.05,-4.72 357.85,-4.36Q357.64,-4.01 357.64,-3.54L357.16,-3.81Q357.16,-4.51 357.48,-5.04Q357.79,-5.58 358.34,-5.9Q358.88,-6.21 359.57,-6.21Q360.26,-6.21 360.8,-5.86Q361.33,-5.52 361.64,-4.96Q361.94,-4.4 361.94,-3.77L361.94,0L360.79,0ZM356.49,0L356.49,-6.08L357.64,-6.08L357.64,0L356.49,0ZM366.07,0.13Q365.24,0.13 364.57,-0.29Q363.9,-0.71 363.51,-1.42Q363.12,-2.14 363.12,-3.03Q363.12,-3.93 363.51,-4.65Q363.9,-5.36 364.57,-5.79Q365.24,-6.21 366.07,-6.21Q366.76,-6.21 367.31,-5.92Q367.86,-5.64 368.2,-5.13Q368.54,-4.62 368.58,-3.96L368.58,-2.13Q368.54,-1.47 368.2,-0.96Q367.87,-0.45 367.32,-0.16Q366.77,0.13 366.07,0.13ZM366.27,-0.96Q366.84,-0.96 367.27,-1.23Q367.7,-1.49 367.95,-1.96Q368.19,-2.43 368.19,-3.04Q368.19,-3.65 367.94,-4.12Q367.7,-4.59 367.27,-4.85Q366.84,-5.12 366.26,-5.12Q365.69,-5.12 365.25,-4.85Q364.81,-4.59 364.56,-4.12Q364.31,-3.65 364.31,-3.04Q364.31,-2.43 364.56,-1.96Q364.81,-1.49 365.25,-1.23Q365.7,-0.96 366.27,-0.96ZM369.27,0L368.12,0L368.12,-1.63L368.33,-3.12L368.12,-4.59L368.12,-9.14L369.27,-9.14L369.27,0ZM374.55,0L374.55,-8.63L375.71,-8.63L375.71,0L374.55,0ZM373.06,-5.03L373.06,-6.08L377.2,-6.08L377.2,-5.03L373.06,-5.03ZM382.62,0L382.62,-3.54Q382.62,-4.24 382.19,-4.68Q381.76,-5.13 381.07,-5.13Q380.61,-5.13 380.25,-4.93Q379.89,-4.72 379.68,-4.36Q379.48,-4.01 379.48,-3.54L379,-3.81Q379,-4.51 379.31,-5.04Q379.63,-5.58 380.17,-5.9Q380.72,-6.21 381.41,-6.21Q382.1,-6.21 382.64,-5.9Q383.17,-5.59 383.48,-5.04Q383.78,-4.49 383.78,-3.77L383.78,0L382.62,0ZM378.33,0L378.33,-9.14L379.48,-9.14L379.48,0L378.33,0ZM388.16,0.13Q387.24,0.13 386.52,-0.28Q385.79,-0.7 385.37,-1.42Q384.95,-2.14 384.95,-3.04Q384.95,-3.94 385.36,-4.66Q385.78,-5.37 386.49,-5.79Q387.2,-6.21 388.08,-6.21Q388.92,-6.21 389.57,-5.82Q390.21,-5.44 390.58,-4.76Q390.95,-4.09 390.95,-3.22Q390.95,-3.09 390.94,-2.94Q390.92,-2.8 390.89,-2.61L385.76,-2.61L385.76,-3.57L390.28,-3.57L389.85,-3.2Q389.85,-3.81 389.63,-4.24Q389.42,-4.68 389.02,-4.91Q388.62,-5.15 388.06,-5.15Q387.46,-5.15 387.02,-4.89Q386.58,-4.63 386.33,-4.17Q386.09,-3.71 386.09,-3.08Q386.09,-2.44 386.34,-1.96Q386.6,-1.48 387.07,-1.22Q387.54,-0.95 388.16,-0.95Q388.67,-0.95 389.1,-1.14Q389.53,-1.32 389.83,-1.67L390.57,-0.92Q390.14,-0.41 389.51,-0.14Q388.87,0.13 388.16,0.13ZM395.8,0L395.8,-8.63L396.95,-8.63L396.95,0L395.8,0ZM394.3,-5.03L394.3,-6.08L398.44,-6.08L398.44,-5.03L394.3,-5.03ZM402.16,0.13Q401.27,0.13 400.55,-0.3Q399.83,-0.72 399.41,-1.44Q398.99,-2.17 398.99,-3.06Q398.99,-3.94 399.41,-4.65Q399.83,-5.36 400.55,-5.79Q401.27,-6.21 402.16,-6.21Q403.05,-6.21 403.77,-5.79Q404.49,-5.37 404.91,-4.66Q405.33,-3.94 405.33,-3.06Q405.33,-2.16 404.91,-1.44Q404.49,-0.72 403.77,-0.3Q403.05,0.13 402.16,0.13ZM402.16,-0.98Q402.74,-0.98 403.19,-1.25Q403.64,-1.52 403.89,-1.99Q404.14,-2.46 404.14,-3.06Q404.14,-3.65 403.88,-4.11Q403.63,-4.57 403.18,-4.83Q402.74,-5.1 402.16,-5.1Q401.59,-5.1 401.14,-4.83Q400.68,-4.57 400.43,-4.11Q400.18,-3.65 400.18,-3.06Q400.18,-2.46 400.43,-1.99Q400.68,-1.52 401.14,-1.25Q401.59,-0.98 402.16,-0.98ZM409.4,0.13Q408.52,0.13 407.8,-0.3Q407.08,-0.72 406.66,-1.44Q406.23,-2.17 406.23,-3.06Q406.23,-3.94 406.66,-4.65Q407.08,-5.36 407.8,-5.79Q408.52,-6.21 409.4,-6.21Q410.29,-6.21 411.01,-5.79Q411.73,-5.37 412.15,-4.66Q412.58,-3.94 412.58,-3.06Q412.58,-2.16 412.15,-1.44Q411.73,-0.72 411.01,-0.3Q410.29,0.13 409.4,0.13ZM409.4,-0.98Q409.98,-0.98 410.43,-1.25Q410.88,-1.52 411.13,-1.99Q411.39,-2.46 411.39,-3.06Q411.39,-3.65 411.13,-4.11Q410.87,-4.57 410.43,-4.83Q409.98,-5.1 409.4,-5.1Q408.83,-5.1 408.38,-4.83Q407.93,-4.57 407.68,-4.11Q407.42,-3.65 407.42,-3.06Q407.42,-2.46 407.68,-1.99Q407.93,-1.52 408.38,-1.25Q408.83,-0.98 409.4,-0.98ZM413.87,0L413.87,-9.14L415.03,-9.14L415.03,0L413.87,0ZM418.64,0.13Q418.14,0.13 417.68,-0.01Q417.22,-0.14 416.84,-0.39Q416.46,-0.63 416.18,-0.98L416.92,-1.72Q417.25,-1.32 417.69,-1.12Q418.12,-0.92 418.67,-0.92Q419.2,-0.92 419.49,-1.11Q419.79,-1.29 419.79,-1.63Q419.79,-1.96 419.55,-2.15Q419.32,-2.33 418.94,-2.45Q418.57,-2.57 418.16,-2.69Q417.74,-2.81 417.37,-3Q417,-3.19 416.76,-3.53Q416.53,-3.87 416.53,-4.42Q416.53,-4.97 416.79,-5.37Q417.06,-5.77 417.54,-5.99Q418.03,-6.21 418.7,-6.21Q419.41,-6.21 419.97,-5.96Q420.53,-5.7 420.89,-5.2L420.15,-4.46Q419.88,-4.8 419.51,-4.98Q419.14,-5.16 418.66,-5.16Q418.16,-5.16 417.9,-4.98Q417.63,-4.81 417.63,-4.51Q417.63,-4.2 417.87,-4.03Q418.1,-3.86 418.48,-3.75Q418.85,-3.64 419.26,-3.52Q419.67,-3.4 420.05,-3.19Q420.42,-2.99 420.65,-2.64Q420.89,-2.29 420.89,-1.73Q420.89,-0.87 420.28,-0.37Q419.68,0.13 418.64,0.13ZM425.78,0L425.78,-8.63L426.93,-8.63L426.93,0L425.78,0ZM424.28,-5.03L424.28,-6.08L428.42,-6.08L428.42,-5.03L424.28,-5.03ZM433.85,0L433.85,-3.54Q433.85,-4.24 433.42,-4.68Q432.99,-5.13 432.3,-5.13Q431.83,-5.13 431.47,-4.93Q431.11,-4.72 430.91,-4.36Q430.71,-4.01 430.71,-3.54L430.23,-3.81Q430.23,-4.51 430.54,-5.04Q430.85,-5.58 431.4,-5.9Q431.94,-6.21 432.63,-6.21Q433.32,-6.21 433.86,-5.9Q434.4,-5.59 434.7,-5.04Q435,-4.49 435,-3.77L435,0L433.85,0ZM429.55,0L429.55,-9.14L430.71,-9.14L430.71,0L429.55,0ZM439.16,0.13Q438.32,0.13 437.64,-0.29Q436.97,-0.71 436.57,-1.42Q436.18,-2.14 436.18,-3.03Q436.18,-3.93 436.57,-4.64Q436.97,-5.36 437.64,-5.78Q438.31,-6.21 439.15,-6.21Q439.85,-6.21 440.39,-5.92Q440.94,-5.63 441.27,-5.12Q441.6,-4.61 441.64,-3.96L441.64,-2.13Q441.6,-1.47 441.27,-0.96Q440.94,-0.45 440.4,-0.16Q439.85,0.13 439.16,0.13ZM439.34,-0.96Q440.2,-0.96 440.73,-1.54Q441.25,-2.12 441.25,-3.04Q441.25,-3.65 441.01,-4.12Q440.77,-4.59 440.34,-4.85Q439.91,-5.12 439.34,-5.12Q438.76,-5.12 438.32,-4.85Q437.88,-4.59 437.62,-4.12Q437.37,-3.65 437.37,-3.04Q437.37,-2.43 437.62,-1.96Q437.88,-1.49 438.32,-1.23Q438.77,-0.96 439.34,-0.96ZM441.18,0L441.18,-1.63L441.39,-3.12L441.18,-4.59L441.18,-6.08L442.34,-6.08L442.34,0L441.18,0ZM444.92,0L444.92,-8.63L446.08,-8.63L446.08,0L444.92,0ZM443.43,-5.03L443.43,-6.08L447.57,-6.08L447.57,-5.03L443.43,-5.03ZM454.14,0.13Q453.25,0.13 452.53,-0.3Q451.81,-0.72 451.39,-1.44Q450.97,-2.17 450.97,-3.06Q450.97,-3.94 451.39,-4.65Q451.81,-5.36 452.53,-5.79Q453.25,-6.21 454.14,-6.21Q455.03,-6.21 455.75,-5.79Q456.47,-5.37 456.89,-4.66Q457.31,-3.94 457.31,-3.06Q457.31,-2.16 456.89,-1.44Q456.47,-0.72 455.75,-0.3Q455.03,0.13 454.14,0.13ZM454.14,-0.98Q454.72,-0.98 455.17,-1.25Q455.62,-1.52 455.87,-1.99Q456.12,-2.46 456.12,-3.06Q456.12,-3.65 455.87,-4.11Q455.61,-4.57 455.16,-4.83Q454.72,-5.1 454.14,-5.1Q453.57,-5.1 453.12,-4.83Q452.67,-4.57 452.41,-4.11Q452.16,-3.65 452.16,-3.06Q452.16,-2.46 452.41,-1.99Q452.67,-1.52 453.12,-1.25Q453.57,-0.98 454.14,-0.98ZM461.81,0.13Q461.11,0.13 460.56,-0.16Q460.01,-0.45 459.68,-0.96Q459.34,-1.47 459.31,-2.13L459.31,-3.96Q459.34,-4.62 459.68,-5.13Q460.02,-5.64 460.58,-5.92Q461.13,-6.21 461.81,-6.21Q462.64,-6.21 463.31,-5.79Q463.98,-5.36 464.37,-4.65Q464.76,-3.93 464.76,-3.03Q464.76,-2.14 464.37,-1.42Q463.98,-0.71 463.31,-0.29Q462.64,0.13 461.81,0.13ZM458.61,2.55L458.61,-6.08L459.76,-6.08L459.76,-4.48L459.55,-3L459.76,-1.53L459.76,2.55L458.61,2.55ZM461.62,-0.96Q462.19,-0.96 462.63,-1.23Q463.07,-1.49 463.32,-1.96Q463.57,-2.43 463.57,-3.04Q463.57,-3.65 463.32,-4.12Q463.07,-4.59 462.63,-4.85Q462.2,-5.12 461.63,-5.12Q461.06,-5.12 460.62,-4.85Q460.18,-4.59 459.94,-4.12Q459.69,-3.65 459.69,-3.04Q459.69,-2.43 459.93,-1.96Q460.18,-1.49 460.61,-1.23Q461.05,-0.96 461.62,-0.96ZM466.8,0L466.8,-8.63L467.96,-8.63L467.96,0L466.8,0ZM465.31,-5.03L465.31,-6.08L469.45,-6.08L469.45,-5.03L465.31,-5.03ZM473.25,0L473.25,-6.08L474.4,-6.08L474.4,0L473.25,0ZM473.82,-7.29Q473.51,-7.29 473.31,-7.51Q473.1,-7.72 473.1,-8.03Q473.1,-8.35 473.31,-8.56Q473.51,-8.77 473.82,-8.77Q474.15,-8.77 474.35,-8.56Q474.55,-8.35 474.55,-8.03Q474.55,-7.72 474.35,-7.51Q474.15,-7.29 473.82,-7.29ZM480.4,0L480.4,-3.54Q480.4,-4.24 479.97,-4.68Q479.54,-5.13 478.85,-5.13Q478.38,-5.13 478.03,-4.93Q477.67,-4.72 477.46,-4.36Q477.26,-4.01 477.26,-3.54L476.78,-3.81Q476.78,-4.51 477.09,-5.04Q477.4,-5.58 477.95,-5.9Q478.5,-6.21 479.19,-6.21Q479.88,-6.21 480.41,-5.86Q480.95,-5.52 481.25,-4.96Q481.56,-4.4 481.56,-3.77L481.56,0L480.4,0ZM476.11,0L476.11,-6.08L477.26,-6.08L477.26,0L476.11,0ZM483.32,1.49L482.66,0.89Q483.57,0.08 484.06,-1.18Q484.55,-2.44 484.55,-3.98Q484.55,-5.54 484.06,-6.79Q483.57,-8.05 482.66,-8.85L483.32,-9.45Q484.03,-8.85 484.53,-7.99Q485.03,-7.13 485.29,-6.1Q485.56,-5.08 485.56,-3.98Q485.56,-2.88 485.29,-1.86Q485.03,-0.83 484.53,0.03Q484.03,0.89 483.32,1.49ZM490.52,0L490.52,-6.99Q490.52,-7.66 490.81,-8.17Q491.1,-8.68 491.63,-8.97Q492.15,-9.26 492.83,-9.26Q493.36,-9.26 493.74,-9.08Q494.12,-8.9 494.45,-8.57L493.7,-7.82Q493.52,-8 493.32,-8.09Q493.12,-8.19 492.83,-8.19Q492.28,-8.19 491.97,-7.87Q491.67,-7.56 491.67,-6.99L491.67,0L490.52,0ZM489.02,-5.03L489.02,-6.08L493.61,-6.08L493.61,-5.03L489.02,-5.03ZM497.18,0.13Q496.3,0.13 495.58,-0.3Q494.86,-0.72 494.44,-1.44Q494.02,-2.17 494.02,-3.06Q494.02,-3.94 494.44,-4.65Q494.86,-5.36 495.58,-5.79Q496.3,-6.21 497.18,-6.21Q498.08,-6.21 498.8,-5.79Q499.51,-5.37 499.94,-4.66Q500.36,-3.94 500.36,-3.06Q500.36,-2.16 499.94,-1.44Q499.51,-0.72 498.8,-0.3Q498.08,0.13 497.18,0.13ZM497.18,-0.98Q497.76,-0.98 498.21,-1.25Q498.66,-1.52 498.92,-1.99Q499.17,-2.46 499.17,-3.06Q499.17,-3.65 498.91,-4.11Q498.65,-4.57 498.21,-4.83Q497.76,-5.1 497.18,-5.1Q496.61,-5.1 496.16,-4.83Q495.71,-4.57 495.46,-4.11Q495.2,-3.65 495.2,-3.06Q495.2,-2.46 495.46,-1.99Q495.71,-1.52 496.16,-1.25Q496.61,-0.98 497.18,-0.98ZM501.65,0L501.65,-9.14L502.81,-9.14L502.81,0L501.65,0ZM504.5,0L504.5,-9.14L505.65,-9.14L505.65,0L504.5,0ZM510.11,0.13Q509.23,0.13 508.51,-0.3Q507.79,-0.72 507.37,-1.44Q506.94,-2.17 506.94,-3.06Q506.94,-3.94 507.37,-4.65Q507.79,-5.36 508.51,-5.79Q509.23,-6.21 510.11,-6.21Q511,-6.21 511.72,-5.79Q512.44,-5.37 512.86,-4.66Q513.29,-3.94 513.29,-3.06Q513.29,-2.16 512.86,-1.44Q512.44,-0.72 511.72,-0.3Q511,0.13 510.11,0.13ZM510.11,-0.98Q510.69,-0.98 511.14,-1.25Q511.59,-1.52 511.84,-1.99Q512.1,-2.46 512.1,-3.06Q512.1,-3.65 511.84,-4.11Q511.58,-4.57 511.14,-4.83Q510.69,-5.1 510.11,-5.1Q509.54,-5.1 509.09,-4.83Q508.64,-4.57 508.39,-4.11Q508.13,-3.65 508.13,-3.06Q508.13,-2.46 508.39,-1.99Q508.64,-1.52 509.09,-1.25Q509.54,-0.98 510.11,-0.98ZM516.14,0L513.74,-6.08L514.94,-6.08L516.69,-1.35L516.3,-1.34L518.03,-6.08L518.7,-6.08L520.42,-1.34L520.04,-1.35L521.78,-6.08L522.98,-6.08L520.58,0L519.91,0L518.15,-4.59L518.57,-4.59L516.82,0L516.14,0ZM526.68,0L526.68,-6.08L527.83,-6.08L527.83,0L526.68,0ZM527.25,-7.29Q526.94,-7.29 526.73,-7.51Q526.53,-7.72 526.53,-8.03Q526.53,-8.35 526.73,-8.56Q526.94,-8.77 527.25,-8.77Q527.57,-8.77 527.78,-8.56Q527.98,-8.35 527.98,-8.03Q527.98,-7.72 527.78,-7.51Q527.57,-7.29 527.25,-7.29ZM530.47,0L530.47,-8.63L531.62,-8.63L531.62,0L530.47,0ZM528.97,-5.03L528.97,-6.08L533.11,-6.08L533.11,-5.03L528.97,-5.03ZM534.82,0.13Q534.46,0.13 534.22,-0.12Q533.99,-0.36 533.99,-0.71Q533.99,-1.08 534.22,-1.31Q534.46,-1.55 534.82,-1.55Q535.18,-1.55 535.41,-1.31Q535.65,-1.08 535.65,-0.71Q535.65,-0.36 535.41,-0.12Q535.18,0.13 534.82,0.13Z" transform="translate(18.59,58.34)" fill="rgb(148,163,184)" stroke-width="1px"/></g></g><g><g><rect x="18.59375" y="80.5625" width="32" height="32" rx="16" ry="16" fill="rgba(0,0,0,0.133)" clip-path="url(#fcshclip-1)" filter="url(#shadow-2)"/><rect x="18.59375" y="78.5625" width="32" height="32" rx="16" ry="16" fill="rgba(143,187,255,0.55)"/></g><g><path d="M3.43,-0.39L3.43,-7.26Q3.43,-7.53 3.27,-7.71Q3.1,-7.88 2.83,-7.88L1.16,-7.88L1.16,-8.75L3.09,-8.75Q3.7,-8.75 4.09,-8.36Q4.48,-7.97 4.48,-7.37L4.48,-0.39L3.43,-0.39ZM1.14,0L1.14,-0.87L6.76,-0.87L6.76,0L1.14,0ZM10.41,-0.44L10.41,-5.59L10.87,-5.24L8.66,-5.24L8.66,-6.01L11.43,-6.01L11.43,-4.16L11.35,-4.18Q11.44,-4.77 11.68,-5.13Q11.93,-5.5 12.26,-5.69Q12.6,-5.89 12.98,-5.96Q13.36,-6.04 13.7,-6.04L14.46,-6.04L14.46,-5.04L13.57,-5.04Q12.9,-5.04 12.42,-4.83Q11.94,-4.61 11.69,-4.13Q11.43,-3.65 11.43,-2.87L11.43,-0.44L10.41,-0.44ZM8.66,0L8.66,-0.77L13.82,-0.77L13.82,0L8.66,0ZM19.03,0.13Q18.15,0.13 17.49,-0.26Q16.84,-0.65 16.48,-1.35Q16.13,-2.05 16.13,-2.97L16.13,-3.1Q16.13,-3.99 16.47,-4.67Q16.81,-5.35 17.43,-5.74Q18.04,-6.14 18.86,-6.14Q19.71,-6.14 20.31,-5.71Q20.91,-5.29 21.19,-4.5Q21.46,-3.71 21.34,-2.62L16.85,-2.62L16.85,-3.4L20.8,-3.4L20.35,-3.09Q20.49,-4.16 20.06,-4.77Q19.64,-5.37 18.86,-5.37Q18.31,-5.37 17.92,-5.09Q17.53,-4.8 17.33,-4.29Q17.13,-3.79 17.13,-3.1L17.13,-2.87Q17.13,-1.86 17.64,-1.27Q18.15,-0.67 19.06,-0.67Q19.5,-0.67 19.89,-0.82Q20.29,-0.96 20.56,-1.24L21.1,-0.65Q20.78,-0.29 20.22,-0.08Q19.66,0.13 19.03,0.13ZM23.16,0L23.16,-6.01L23.99,-6.01L23.99,-4.65L23.84,-4.66Q23.95,-5.21 24.18,-5.53Q24.41,-5.86 24.72,-6Q25.03,-6.14 25.35,-6.14Q25.94,-6.14 26.25,-5.81Q26.56,-5.48 26.66,-4.9L26.43,-4.9Q26.57,-5.46 26.98,-5.8Q27.39,-6.14 27.95,-6.14Q28.66,-6.14 29.04,-5.66Q29.41,-5.19 29.41,-4.31L29.41,0L28.54,0L28.54,-4.32Q28.54,-4.79 28.3,-5.05Q28.05,-5.32 27.66,-5.32Q27.26,-5.32 26.99,-5.05Q26.72,-4.78 26.72,-4.33L26.72,0L25.85,0L25.85,-4.32Q25.85,-4.79 25.63,-5.05Q25.41,-5.32 25,-5.32Q24.62,-5.32 24.32,-5.02Q24.03,-4.73 24.03,-4.06L24.03,0L23.16,0Z" transform="translate(1347.41,98.19)" fill="rgb(148,163,184)" stroke-width="1px"/></g></g><g><rect x="62.59375" y="92.5625" width="1246.578125" height="4" rx="2" ry="2" fill="rgba(148,163,184,0.75)"/></g><g><rect x="62.59375" y="92.5625" width="831.046875" height="4" rx="2" ry="2" fill="rgb(143,187,255)"/></g><g><rect x="886.640625" y="88.5625" width="14" height="14" rx="7" ry="7" fill="rgba(0,0,0,0.25)" filter="url(#shadow-3)"/><rect x="886.640625" y="87.5625" width="14" height="14" rx="7" ry="7" fill="rgb(143,187,255)"/></g></g></g></svg>