<?xml version="1.0" standalone="no"?>
<svg xmlns="http://www.w3.org/2000/svg" id="d3-svg" viewBox="0 0 1280 800" width="1280" height="800" style="width:100%;height:auto;display:block;" data-lolly-anno="bar auto grouped monotone uniform none linear auto suse series #11141f #fafbfe bottom" data-canvas-input="width" xmlns:c2pa="http://c2pa.org/manifest"><metadata><c2pa:manifest>AAAICGp1bWIAAAAeanVtZGMycGEAEQAQgAAAqgA4m3EDYzJwYQAAAAfianVtYgAAAEdqdW1kYzJtYQARABCAAACqADibcQN1cm46dXVpZDozNDRiNzQ3YS1hYzMzLTQwMzEtOGQ5OS1mNTlmZjQ3NDU4ZTUAAAADKmp1bWIAAAApanVtZGMyYXMAEQAQgAAAqgA4m3EDYzJwYS5hc3NlcnRpb25zAAAAAO1qdW1iAAAAKWp1bWRjYm9yABEAEIAAAKoAOJtxA2MycGEuYWN0aW9ucy52MgAAAAC8Y2JvcqFnYWN0aW9uc4GkZmFjdGlvbmxjMnBhLmNyZWF0ZWRxZGlnaXRhbFNvdXJjZVR5cGV4Pmh0dHA6Ly9jdi5pcHRjLm9yZy9uZXdzY29kZXMvZGlnaXRhbHNvdXJjZXR5cGUvZGlnaXRhbENyZWF0aW9ubXNvZnR3YXJlQWdlbnSiZG5hbWVlTG9sbHlndmVyc2lvbmYxLjkzLjBkd2hlbnQyMDI2LTA3LTMxVDIyOjU0OjA1WgAAAKxqdW1iAAAAKGp1bWRjYm9yABEAEIAAAKoAOJtxA2MycGEuaGFzaC5kYXRhAAAAAHxjYm9ypWpleGNsdXNpb25zgaJlc3RhcnQZAXpmbGVuZ3RoGQq4ZG5hbWVuanVtYmYgbWFuaWZlc3RjYWxnZnNoYTI1NmRoYXNoWCCkElEwmMKdtN3W0EmgaqdRLPG9ngXDxGsQEmlgMFxwN2NwYWRIAAAAAAAAAAAAAAFganVtYgAAACxqdW1kY2JvcgARABCAAACqADibcQN0b29scy5sb2xseS5leHBvcnQAAAABLGNib3KoZ3N1cmZhY2VkZG9jc2ZlbmdpbmVtbm9kZSB2MjQuMTguMWJvc2ZkYXJ3aW5mZm9ybWF0Y3N2Z2R0b29sblVSTCBTY3JlZW5zaG90ZGRhdGV4GDIwMjYtMDctMzFUMjI6NTQ6MDUuMDQwWmpkaW1lbnNpb25zbjE0NDAgw5cgOTAwIHB4ZmlucHV0c6djdXJsdy8jL3Rvb2wvZDM/c2hvd1ZhbHVlcz0xZndhaXRNc2QyODAwZXRoZW1lZGRhcmtnY3JvcFRvcHMwLjA3ODg4ODg4ODg4ODg4ODg4aWNyb3BSaWdodGEwamNyb3BCb3R0b21zMC4wNzg4ODg4ODg4ODg4ODg4OGhjcm9wTGVmdHMwLjE4MzMzMzMzMzMzMzMzMzMyAAACCGp1bWIAAAAnanVtZGMyY2wAEQAQgAAAqgA4m3EDYzJwYS5jbGFpbS52MgAAAAHZY2JvcqZoZGM6dGl0bGVuVVJMIFNjcmVlbnNob3RqaW5zdGFuY2VJRHgtdXJuOnV1aWQ6MmM4OGRlMGMtMGY4YS00MmQ3LWJmYzEtOWFiNGM3MzM1NTc3dGNsYWltX2dlbmVyYXRvcl9pbmZvomRuYW1lZUxvbGx5Z3ZlcnNpb25mMS45My4wcmNyZWF0ZWRfYXNzZXJ0aW9uc4OiY3VybHgqc2VsZiNqdW1iZj1jMnBhLmFzc2VydGlvbnMvYzJwYS5hY3Rpb25zLnYyZGhhc2hYIPX5MRuKfdy7JbJCxD0AnO8fh9HadsulH+WaXz9cDsQGomN1cmx4KXNlbGYjanVtYmY9YzJwYS5hc3NlcnRpb25zL2MycGEuaGFzaC5kYXRhZGhhc2hYIO68RxZGqYO2K7vVwpE9Ygyq5uMjzL4YgW+5WKIlglk7omN1cmx4LXNlbGYjanVtYmY9YzJwYS5hc3NlcnRpb25zL3Rvb2xzLmxvbGx5LmV4cG9ydGRoYXNoWCCWxJINInwtz7HE0KU/6v87xQOvHVbyRYj7K+Av6kYtWGlzaWduYXR1cmV4GXNlbGYjanVtYmY9YzJwYS5zaWduYXR1cmVjYWxnZnNoYTI1NgAAAmFqdW1iAAAAKGp1bWRjMmNzABEAEIAAAKoAOJtxA2MycGEuc2lnbmF0dXJlAAAAAjFjYm9y0oRZAeCiASYYIYFZAdcwggHTMIIBeaADAgECAgl20xrln4Hobd4wCgYIKoZIzj0EAwIwNTEOMAwGA1UECgwFTG9sbHkxIzAhBgNVBAMMGkxvbGx5IE9uLURldmljZSBDcmVkZW50aWFsMB4XDTI2MDczMTIyNTMwNVoXDTI3MDczMTIyNTQwNVowNTEOMAwGA1UECgwFTG9sbHkxIzAhBgNVBAMMGkxvbGx5IE9uLURldmljZSBDcmVkZW50aWFsMFkwEwYHKoZIzj0CAQYIKoZIzj0DAQcDQgAEp9Ri6QqC1AtEiMTCAaY4D2w6eRxnN64Zw1RGDwhkOatV439q2AhOd1go5dQi6a6IaJ0LAcVxJYVDtCDxl4Ys86NyMHAwCQYDVR0TBAIwADAOBgNVHQ8BAf8EBAMCB4AwEwYDVR0lBAwwCgYIKwYBBQUHAwQwHQYDVR0OBBYEFP654qb2/mR4WaYBAr3P2c1cJHneMB8GA1UdIwQYMBaAFP654qb2/mR4WaYBAr3P2c1cJHneMAoGCCqGSM49BAMCA0gAMEUCIEWY9WHGvpndx7qDSmuSw3M1spxs6zbMu16LChdbGqYKAiEA5eK8ox6i1mH4FrZRU9lbtO2/esnx17f07rQFT9o1HZ6g9lhAP4CZYfgdMBKZ8N/9YLSyKXs2PPohXPwG6WstUzWIjH3kZc5q6LQKCzWz9osE6vVIC8hv+9hS8ASd96y99wgVWw==</c2pa:manifest></metadata>
  <defs>
    <style>
      /* Brand font via the injected var (community pattern — no @font-face here;
         the shell loads the active brand's faces). 'SUSE' rides the fallback
         tail so an already-registered face still resolves on older shells. */
      #d3-svg text, #d3-svg tspan { font-family: var(--font-brand, 'SUSE', system-ui, -apple-system, sans-serif); }
      /* Click-to-focus: annotated parts jump to their sidebar control on click — hint it. */
      #d3-svg [data-canvas-input] { cursor: pointer; }
    </style>
  </defs>
  <rect id="d3-bg" width="1280" height="800" fill="#fafbfe" data-canvas-input="background" pointer-events="all"/>
  <g id="d3-plot" data-canvas-input="data"><g class="value-axis" data-canvas-input="numberFormat"><line x1="122.4" y1="646" x2="1216" y2="646" stroke="#11141f" stroke-width="1" opacity="0.28"/><path d="M7.25,0.22Q5.54,0.22 4.13,-0.75Q2.72,-1.72 1.88,-3.49Q1.03,-5.26 1.03,-7.66Q1.03,-10.06 1.86,-11.81Q2.69,-13.57 4.1,-14.53Q5.5,-15.49 7.2,-15.49Q8.93,-15.49 10.33,-14.53Q11.74,-13.57 12.57,-11.81Q13.4,-10.05 13.4,-7.63Q13.4,-5.24 12.57,-3.47Q11.74,-1.7 10.35,-0.74Q8.96,0.22 7.25,0.22ZM7.21,-1.73Q8.43,-1.73 9.34,-2.4Q10.26,-3.07 10.78,-4.39Q11.31,-5.71 11.31,-7.65Q11.31,-9.58 10.78,-10.9Q10.26,-12.21 9.33,-12.88Q8.41,-13.54 7.2,-13.54Q6.01,-13.54 5.08,-12.88Q4.16,-12.21 3.64,-10.9Q3.12,-9.6 3.12,-7.66Q3.12,-5.71 3.64,-4.39Q4.16,-3.07 5.08,-2.4Q6.01,-1.73 7.21,-1.73Z" transform="translate(99.97,651)" fill="rgb(17, 20, 31)" opacity="0.6" stroke="none" stroke-width="1px" stroke-opacity="1"/><line x1="122.4" y1="555.5384615384615" x2="1216" y2="555.5384615384615" stroke="#11141f" stroke-width="1" opacity="0.1"/><path d="M3.81,0L3.81,-15.27L5.85,-15.27L5.85,0L3.81,0ZM0.68,-13.41L0.68,-15.27L5.63,-15.27L5.63,-13.41L0.68,-13.41ZM14.88,0.22Q13.18,0.22 11.76,-0.75Q10.35,-1.72 9.51,-3.49Q8.67,-5.26 8.67,-7.66Q8.67,-10.06 9.5,-11.81Q10.33,-13.57 11.73,-14.53Q13.13,-15.49 14.84,-15.49Q16.57,-15.49 17.97,-14.53Q19.37,-13.57 20.2,-11.81Q21.03,-10.05 21.03,-7.63Q21.03,-5.24 20.2,-3.47Q19.37,-1.7 17.98,-0.74Q16.59,0.22 14.88,0.22ZM14.84,-1.73Q16.06,-1.73 16.98,-2.4Q17.89,-3.07 18.42,-4.39Q18.94,-5.71 18.94,-7.65Q18.94,-9.58 18.42,-10.9Q17.89,-12.21 16.97,-12.88Q16.04,-13.54 14.83,-13.54Q13.64,-13.54 12.72,-12.88Q11.79,-12.21 11.27,-10.9Q10.76,-9.6 10.76,-7.66Q10.76,-5.71 11.27,-4.39Q11.79,-3.07 12.72,-2.4Q13.64,-1.73 14.84,-1.73Z" transform="translate(92.33,560.54)" fill="rgb(17, 20, 31)" opacity="0.6" stroke="none" stroke-width="1px" stroke-opacity="1"/><line x1="122.4" y1="465.0769230769231" x2="1216" y2="465.0769230769231" stroke="#11141f" stroke-width="1" opacity="0.1"/><path d="M0.73,-1.24L6.36,-7.18Q7.2,-8.07 7.69,-8.72Q8.18,-9.37 8.39,-9.92Q8.59,-10.48 8.59,-11.07Q8.59,-12.24 7.85,-12.9Q7.11,-13.56 5.92,-13.56Q4.75,-13.56 3.87,-12.99Q2.99,-12.43 2.3,-11.26L0.85,-12.48Q1.75,-13.96 3.03,-14.72Q4.3,-15.49 5.98,-15.49Q7.38,-15.49 8.43,-14.94Q9.48,-14.38 10.05,-13.39Q10.63,-12.4 10.63,-11.08Q10.63,-10.14 10.4,-9.39Q10.16,-8.64 9.58,-7.86Q9,-7.08 7.97,-6.01L3.42,-1.31L0.73,-1.24ZM0.73,0L0.73,-1.24L2.47,-1.85L10.97,-1.85L10.97,0L0.73,0ZM19.15,0.22Q17.45,0.22 16.03,-0.75Q14.62,-1.72 13.78,-3.49Q12.94,-5.26 12.94,-7.66Q12.94,-10.06 13.77,-11.81Q14.6,-13.57 16,-14.53Q17.4,-15.49 19.1,-15.49Q20.83,-15.49 22.24,-14.53Q23.64,-13.57 24.47,-11.81Q25.3,-10.05 25.3,-7.63Q25.3,-5.24 24.47,-3.47Q23.64,-1.7 22.25,-0.74Q20.86,0.22 19.15,0.22ZM19.11,-1.73Q20.33,-1.73 21.24,-2.4Q22.16,-3.07 22.68,-4.39Q23.21,-5.71 23.21,-7.65Q23.21,-9.58 22.68,-10.9Q22.16,-12.21 21.24,-12.88Q20.31,-13.54 19.1,-13.54Q17.91,-13.54 16.98,-12.88Q16.06,-12.21 15.54,-10.9Q15.03,-9.6 15.03,-7.66Q15.03,-5.71 15.54,-4.39Q16.06,-3.07 16.98,-2.4Q17.91,-1.73 19.11,-1.73Z" transform="translate(88.07,470.08)" fill="rgb(17, 20, 31)" opacity="0.6" stroke="none" stroke-width="1px" stroke-opacity="1"/><line x1="122.4" y1="374.6153846153846" x2="1216" y2="374.6153846153846" stroke="#11141f" stroke-width="1" opacity="0.1"/><path d="M5.43,0.22Q3.93,0.22 2.71,-0.34Q1.49,-0.91 0.65,-1.99L2.06,-3.39Q2.56,-2.62 3.45,-2.17Q4.34,-1.72 5.4,-1.72Q6.42,-1.72 7.16,-2.11Q7.9,-2.49 8.32,-3.19Q8.74,-3.89 8.74,-4.81Q8.74,-5.77 8.32,-6.45Q7.9,-7.14 7.13,-7.52Q6.36,-7.9 5.29,-7.9Q4.91,-7.9 4.5,-7.85Q4.1,-7.79 3.75,-7.68L4.62,-8.86Q5.03,-9.05 5.51,-9.17Q5.99,-9.28 6.5,-9.28Q7.72,-9.28 8.7,-8.71Q9.69,-8.13 10.26,-7.1Q10.84,-6.08 10.84,-4.71Q10.84,-3.26 10.15,-2.14Q9.47,-1.03 8.25,-0.4Q7.04,0.22 5.43,0.22ZM3.75,-7.68L3.75,-8.93L8.2,-14.02L10.66,-14.02L6.07,-8.83L3.75,-7.68ZM1.38,-13.41L1.38,-15.27L10.66,-15.27L10.66,-14.02L8.87,-13.41L1.38,-13.41ZM19.09,0.22Q17.38,0.22 15.97,-0.75Q14.55,-1.72 13.71,-3.49Q12.87,-5.26 12.87,-7.66Q12.87,-10.06 13.7,-11.81Q14.53,-13.57 15.93,-14.53Q17.33,-15.49 19.04,-15.49Q20.77,-15.49 22.17,-14.53Q23.57,-13.57 24.4,-11.81Q25.23,-10.05 25.23,-7.63Q25.23,-5.24 24.4,-3.47Q23.57,-1.7 22.18,-0.74Q20.79,0.22 19.09,0.22ZM19.04,-1.73Q20.26,-1.73 21.18,-2.4Q22.09,-3.07 22.62,-4.39Q23.14,-5.71 23.14,-7.65Q23.14,-9.58 22.62,-10.9Q22.09,-12.21 21.17,-12.88Q20.25,-13.54 19.03,-13.54Q17.84,-13.54 16.92,-12.88Q15.99,-12.21 15.48,-10.9Q14.96,-9.6 14.96,-7.66Q14.96,-5.71 15.48,-4.39Q15.99,-3.07 16.92,-2.4Q17.84,-1.73 19.04,-1.73Z" transform="translate(88.13,379.62)" fill="rgb(17, 20, 31)" opacity="0.6" stroke="none" stroke-width="1px" stroke-opacity="1"/><line x1="122.4" y1="284.15384615384613" x2="1216" y2="284.15384615384613" stroke="#11141f" stroke-width="1" opacity="0.1"/><path d="M0.73,-5.26L6.29,-15.27L8.62,-15.27L2.94,-5.26L0.73,-5.26ZM0.73,-3.98L0.73,-5.26L1.61,-5.84L12.43,-5.84L12.43,-3.98L0.73,-3.98ZM8.19,0L8.19,-10.09L10.22,-10.09L10.22,0L8.19,0ZM20.41,0.22Q18.7,0.22 17.29,-0.75Q15.87,-1.72 15.03,-3.49Q14.19,-5.26 14.19,-7.66Q14.19,-10.06 15.02,-11.81Q15.85,-13.57 17.25,-14.53Q18.65,-15.49 20.36,-15.49Q22.09,-15.49 23.49,-14.53Q24.89,-13.57 25.72,-11.81Q26.55,-10.05 26.55,-7.63Q26.55,-5.24 25.72,-3.47Q24.89,-1.7 23.5,-0.74Q22.11,0.22 20.41,0.22ZM20.36,-1.73Q21.58,-1.73 22.5,-2.4Q23.41,-3.07 23.94,-4.39Q24.46,-5.71 24.46,-7.65Q24.46,-9.58 23.94,-10.9Q23.41,-12.21 22.49,-12.88Q21.57,-13.54 20.35,-13.54Q19.16,-13.54 18.24,-12.88Q17.31,-12.21 16.8,-10.9Q16.28,-9.6 16.28,-7.66Q16.28,-5.71 16.8,-4.39Q17.31,-3.07 18.24,-2.4Q19.16,-1.73 20.36,-1.73Z" transform="translate(86.81,289.15)" fill="rgb(17, 20, 31)" opacity="0.6" stroke="none" stroke-width="1px" stroke-opacity="1"/><line x1="122.4" y1="193.69230769230765" x2="1216" y2="193.69230769230765" stroke="#11141f" stroke-width="1" opacity="0.1"/><path d="M5.44,0.22Q3.89,0.22 2.67,-0.34Q1.45,-0.91 0.61,-1.99L2.01,-3.39Q2.52,-2.62 3.41,-2.17Q4.3,-1.72 5.41,-1.72Q6.45,-1.72 7.22,-2.11Q8,-2.5 8.45,-3.22Q8.9,-3.94 8.9,-4.92Q8.9,-5.94 8.46,-6.64Q8.03,-7.34 7.3,-7.71Q6.56,-8.08 5.68,-8.08Q4.77,-8.08 4.03,-7.85Q3.29,-7.63 2.65,-7.11L2.66,-8.42Q3.04,-8.88 3.52,-9.17Q4,-9.46 4.62,-9.61Q5.24,-9.76 6.04,-9.76Q7.62,-9.76 8.73,-9.1Q9.83,-8.44 10.41,-7.32Q10.99,-6.2 10.99,-4.82Q10.99,-3.35 10.28,-2.22Q9.56,-1.08 8.32,-0.43Q7.07,0.22 5.44,0.22ZM2.65,-7.11L1.52,-8.23L2.19,-15.27L4.09,-15.27L3.33,-8.02L2.65,-7.11ZM2.62,-13.41L2.19,-15.27L10.22,-15.27L10.22,-13.41L2.62,-13.41ZM19.15,0.22Q17.45,0.22 16.03,-0.75Q14.62,-1.72 13.78,-3.49Q12.94,-5.26 12.94,-7.66Q12.94,-10.06 13.77,-11.81Q14.6,-13.57 16,-14.53Q17.4,-15.49 19.1,-15.49Q20.83,-15.49 22.24,-14.53Q23.64,-13.57 24.47,-11.81Q25.3,-10.05 25.3,-7.63Q25.3,-5.24 24.47,-3.47Q23.64,-1.7 22.25,-0.74Q20.86,0.22 19.15,0.22ZM19.11,-1.73Q20.33,-1.73 21.24,-2.4Q22.16,-3.07 22.68,-4.39Q23.21,-5.71 23.21,-7.65Q23.21,-9.58 22.68,-10.9Q22.16,-12.21 21.24,-12.88Q20.31,-13.54 19.1,-13.54Q17.91,-13.54 16.98,-12.88Q16.06,-12.21 15.54,-10.9Q15.03,-9.6 15.03,-7.66Q15.03,-5.71 15.54,-4.39Q16.06,-3.07 16.98,-2.4Q17.91,-1.73 19.11,-1.73Z" transform="translate(88.07,198.69)" fill="rgb(17, 20, 31)" opacity="0.6" stroke="none" stroke-width="1px" stroke-opacity="1"/><line x1="122.4" y1="103.2307692307692" x2="1216" y2="103.2307692307692" stroke="#11141f" stroke-width="1" opacity="0.1"/><path d="M6.19,0.22Q4.69,0.22 3.49,-0.48Q2.28,-1.18 1.58,-2.37Q0.87,-3.56 0.87,-5.01Q0.87,-7.03 2.28,-9.04L6.77,-15.27L9.17,-15.27L4.58,-8.99L3.83,-8.61Q4.09,-9.06 4.46,-9.38Q4.83,-9.7 5.38,-9.88Q5.93,-10.05 6.68,-10.05Q8.02,-10.05 9.12,-9.41Q10.21,-8.77 10.88,-7.66Q11.54,-6.54 11.54,-5.08Q11.54,-3.62 10.82,-2.41Q10.11,-1.2 8.89,-0.49Q7.68,0.22 6.19,0.22ZM6.2,-1.71Q7.12,-1.71 7.86,-2.16Q8.6,-2.61 9.03,-3.37Q9.47,-4.14 9.47,-5.08Q9.47,-6.02 9.03,-6.78Q8.6,-7.55 7.86,-7.98Q7.12,-8.42 6.2,-8.42Q5.27,-8.42 4.53,-7.98Q3.8,-7.53 3.37,-6.78Q2.95,-6.03 2.95,-5.08Q2.95,-4.14 3.37,-3.37Q3.8,-2.6 4.53,-2.15Q5.27,-1.71 6.2,-1.71ZM19.66,0.22Q17.95,0.22 16.54,-0.75Q15.12,-1.72 14.28,-3.49Q13.44,-5.26 13.44,-7.66Q13.44,-10.06 14.27,-11.81Q15.1,-13.57 16.5,-14.53Q17.91,-15.49 19.61,-15.49Q21.34,-15.49 22.74,-14.53Q24.15,-13.57 24.98,-11.81Q25.81,-10.05 25.81,-7.63Q25.81,-5.24 24.98,-3.47Q24.15,-1.7 22.76,-0.74Q21.36,0.22 19.66,0.22ZM19.61,-1.73Q20.83,-1.73 21.75,-2.4Q22.67,-3.07 23.19,-4.39Q23.72,-5.71 23.72,-7.65Q23.72,-9.58 23.19,-10.9Q22.67,-12.21 21.74,-12.88Q20.82,-13.54 19.61,-13.54Q18.41,-13.54 17.49,-12.88Q16.57,-12.21 16.05,-10.9Q15.53,-9.6 15.53,-7.66Q15.53,-5.71 16.05,-4.39Q16.57,-3.07 17.49,-2.4Q18.41,-1.73 19.61,-1.73Z" transform="translate(87.56,108.23)" fill="rgb(17, 20, 31)" opacity="0.6" stroke="none" stroke-width="1px" stroke-opacity="1"/></g><g class="cat-axis"><path d="M8.78,0.22Q7.13,0.22 5.7,-0.4Q4.27,-1.01 3.19,-2.1Q2.11,-3.19 1.51,-4.63Q0.9,-6.07 0.9,-7.72Q0.9,-9.37 1.51,-10.8Q2.11,-12.23 3.18,-13.32Q4.25,-14.41 5.67,-15.01Q7.08,-15.62 8.73,-15.62Q10.38,-15.62 11.8,-15.01Q13.22,-14.41 14.3,-13.32Q15.38,-12.23 15.98,-10.79Q16.59,-9.35 16.59,-7.7Q16.59,-6.05 15.98,-4.61Q15.38,-3.17 14.31,-2.09Q13.24,-1.01 11.83,-0.4Q10.41,0.22 8.78,0.22ZM15.82,1.06L8.89,-5.87L10.52,-7.5L17.45,-0.57L15.82,1.06ZM8.73,-2.2Q10.3,-2.2 11.47,-2.9Q12.65,-3.61 13.32,-4.85Q13.99,-6.09 13.99,-7.72Q13.99,-8.93 13.61,-9.93Q13.22,-10.93 12.52,-11.67Q11.81,-12.41 10.86,-12.8Q9.9,-13.2 8.73,-13.2Q7.19,-13.2 6.02,-12.51Q4.84,-11.81 4.17,-10.58Q3.5,-9.35 3.5,-7.72Q3.5,-6.51 3.88,-5.49Q4.27,-4.47 4.96,-3.74Q5.65,-3.01 6.62,-2.61Q7.59,-2.2 8.73,-2.2ZM21.69,0L21.69,-15.4L24.18,-15.4L24.18,0L21.69,0ZM18.61,-13.13L18.61,-15.4L23.96,-15.4L23.96,-13.13L18.61,-13.13Z" transform="translate(265.7,674)" fill="rgb(17, 20, 31)" opacity="0.8" stroke="none" stroke-width="1px" stroke-opacity="1"/><path d="M8.78,0.22Q7.13,0.22 5.7,-0.4Q4.27,-1.01 3.19,-2.1Q2.11,-3.19 1.51,-4.63Q0.9,-6.07 0.9,-7.72Q0.9,-9.37 1.51,-10.8Q2.11,-12.23 3.18,-13.32Q4.25,-14.41 5.67,-15.01Q7.08,-15.62 8.73,-15.62Q10.38,-15.62 11.8,-15.01Q13.22,-14.41 14.3,-13.32Q15.38,-12.23 15.98,-10.79Q16.59,-9.35 16.59,-7.7Q16.59,-6.05 15.98,-4.61Q15.38,-3.17 14.31,-2.09Q13.24,-1.01 11.83,-0.4Q10.41,0.22 8.78,0.22ZM15.82,1.06L8.89,-5.87L10.52,-7.5L17.45,-0.57L15.82,1.06ZM8.73,-2.2Q10.3,-2.2 11.47,-2.9Q12.65,-3.61 13.32,-4.85Q13.99,-6.09 13.99,-7.72Q13.99,-8.93 13.61,-9.93Q13.22,-10.93 12.52,-11.67Q11.81,-12.41 10.86,-12.8Q9.9,-13.2 8.73,-13.2Q7.19,-13.2 6.02,-12.51Q4.84,-11.81 4.17,-10.58Q3.5,-9.35 3.5,-7.72Q3.5,-6.51 3.88,-5.49Q4.27,-4.47 4.96,-3.74Q5.65,-3.01 6.62,-2.61Q7.59,-2.2 8.73,-2.2ZM18.66,-1.5L24.33,-7.52Q25.04,-8.27 25.48,-8.87Q25.92,-9.46 26.11,-9.99Q26.31,-10.52 26.31,-11.07Q26.31,-12.1 25.64,-12.68Q24.97,-13.27 23.94,-13.27Q22.84,-13.27 22,-12.72Q21.16,-12.17 20.5,-11L18.74,-12.45Q19.65,-14.01 20.97,-14.82Q22.29,-15.62 24.02,-15.62Q25.45,-15.62 26.53,-15.05Q27.61,-14.48 28.2,-13.45Q28.8,-12.43 28.8,-11.09Q28.8,-10.12 28.57,-9.36Q28.34,-8.6 27.79,-7.84Q27.24,-7.08 26.27,-6.07L21.91,-1.56L18.66,-1.5ZM18.66,0L18.66,-1.5L20.83,-2.27L29.11,-2.27L29.11,0L18.66,0Z" transform="translate(524.04,674)" fill="rgb(17, 20, 31)" opacity="0.8" stroke="none" stroke-width="1px" stroke-opacity="1"/><path d="M8.78,0.22Q7.13,0.22 5.7,-0.4Q4.27,-1.01 3.19,-2.1Q2.11,-3.19 1.51,-4.63Q0.9,-6.07 0.9,-7.72Q0.9,-9.37 1.51,-10.8Q2.11,-12.23 3.18,-13.32Q4.25,-14.41 5.67,-15.01Q7.08,-15.62 8.73,-15.62Q10.38,-15.62 11.8,-15.01Q13.22,-14.41 14.3,-13.32Q15.38,-12.23 15.98,-10.79Q16.59,-9.35 16.59,-7.7Q16.59,-6.05 15.98,-4.61Q15.38,-3.17 14.31,-2.09Q13.24,-1.01 11.83,-0.4Q10.41,0.22 8.78,0.22ZM15.82,1.06L8.89,-5.87L10.52,-7.5L17.45,-0.57L15.82,1.06ZM8.73,-2.2Q10.3,-2.2 11.47,-2.9Q12.65,-3.61 13.32,-4.85Q13.99,-6.09 13.99,-7.72Q13.99,-8.93 13.61,-9.93Q13.22,-10.93 12.52,-11.67Q11.81,-12.41 10.86,-12.8Q9.9,-13.2 8.73,-13.2Q7.19,-13.2 6.02,-12.51Q4.84,-11.81 4.17,-10.58Q3.5,-9.35 3.5,-7.72Q3.5,-6.51 3.88,-5.49Q4.27,-4.47 4.96,-3.74Q5.65,-3.01 6.62,-2.61Q7.59,-2.2 8.73,-2.2ZM23.45,0.22Q21.91,0.22 20.67,-0.34Q19.43,-0.9 18.57,-1.98L20.28,-3.7Q20.75,-2.99 21.58,-2.57Q22.42,-2.16 23.41,-2.16Q24.35,-2.16 25.04,-2.51Q25.72,-2.86 26.1,-3.5Q26.49,-4.14 26.49,-4.97Q26.49,-5.85 26.1,-6.47Q25.72,-7.08 25,-7.42Q24.29,-7.77 23.28,-7.77Q22.88,-7.77 22.46,-7.71Q22.04,-7.66 21.71,-7.55L22.84,-9Q23.3,-9.17 23.82,-9.29Q24.33,-9.42 24.82,-9.42Q26,-9.42 26.96,-8.84Q27.92,-8.27 28.48,-7.25Q29.04,-6.23 29.04,-4.84Q29.04,-3.34 28.34,-2.2Q27.63,-1.06 26.38,-0.42Q25.12,0.22 23.45,0.22ZM21.71,-7.55L21.71,-9.04L25.83,-13.84L28.86,-13.9L24.57,-8.98L21.71,-7.55ZM19.34,-13.13L19.34,-15.4L28.86,-15.4L28.86,-13.9L26.69,-13.13L19.34,-13.13Z" transform="translate(784.43,674)" fill="rgb(17, 20, 31)" opacity="0.8" stroke="none" stroke-width="1px" stroke-opacity="1"/><path d="M8.78,0.22Q7.13,0.22 5.7,-0.4Q4.27,-1.01 3.19,-2.1Q2.11,-3.19 1.51,-4.63Q0.9,-6.07 0.9,-7.72Q0.9,-9.37 1.51,-10.8Q2.11,-12.23 3.18,-13.32Q4.25,-14.41 5.67,-15.01Q7.08,-15.62 8.73,-15.62Q10.38,-15.62 11.8,-15.01Q13.22,-14.41 14.3,-13.32Q15.38,-12.23 15.98,-10.79Q16.59,-9.35 16.59,-7.7Q16.59,-6.05 15.98,-4.61Q15.38,-3.17 14.31,-2.09Q13.24,-1.01 11.83,-0.4Q10.41,0.22 8.78,0.22ZM15.82,1.06L8.89,-5.87L10.52,-7.5L17.45,-0.57L15.82,1.06ZM8.73,-2.2Q10.3,-2.2 11.47,-2.9Q12.65,-3.61 13.32,-4.85Q13.99,-6.09 13.99,-7.72Q13.99,-8.93 13.61,-9.93Q13.22,-10.93 12.52,-11.67Q11.81,-12.41 10.86,-12.8Q9.9,-13.2 8.73,-13.2Q7.19,-13.2 6.02,-12.51Q4.84,-11.81 4.17,-10.58Q3.5,-9.35 3.5,-7.72Q3.5,-6.51 3.88,-5.49Q4.27,-4.47 4.96,-3.74Q5.65,-3.01 6.62,-2.61Q7.59,-2.2 8.73,-2.2ZM18.66,-5.5L24.13,-15.4L26.99,-15.4L21.38,-5.5L18.66,-5.5ZM18.66,-3.96L18.66,-5.5L19.73,-6.23L30.6,-6.23L30.6,-3.96L18.66,-3.96ZM25.96,0L25.96,-10.08L28.45,-10.08L28.45,0L25.96,0Z" transform="translate(1044.16,674)" fill="rgb(17, 20, 31)" opacity="0.8" stroke="none" stroke-width="1px" stroke-opacity="1"/></g><g><rect x="178.56059757236233" y="266.0615384615385" width="63.98904450669156" height="379.9384615384615" fill="#0c8aca" rx="3" ry="3"/><rect x="246.6340491752257" y="392.7076923076923" width="63.98904450669156" height="253.2923076923077" fill="#009661" rx="3" ry="3"/><rect x="314.70750077808907" y="537.4461538461538" width="63.98904450669156" height="108.55384615384617" fill="#777ad5" rx="3" ry="3"/><rect x="438.9415499533147" y="202.73846153846154" width="63.98904450669156" height="443.26153846153846" fill="#0c8aca" rx="3" ry="3"/><rect x="507.01500155617805" y="329.3846153846154" width="63.98904450669156" height="316.6153846153846" fill="#009661" rx="3" ry="3"/><rect x="575.0884531590414" y="483.16923076923075" width="63.98904450669156" height="162.83076923076925" fill="#777ad5" rx="3" ry="3"/><rect x="699.322502334267" y="148.46153846153845" width="63.98904450669156" height="497.53846153846155" fill="#0c8aca" rx="3" ry="3"/><rect x="767.3959539371303" y="275.10769230769233" width="63.98904450669156" height="370.89230769230767" fill="#009661" rx="3" ry="3"/><rect x="835.4694055399937" y="428.89230769230767" width="63.98904450669156" height="217.10769230769233" fill="#777ad5" rx="3" ry="3"/><rect x="959.7034547152194" y="76.09230769230768" width="63.98904450669156" height="569.9076923076923" fill="#0c8aca" rx="3" ry="3"/><rect x="1027.7769063180829" y="175.59999999999997" width="63.98904450669156" height="470.40000000000003" fill="#009661" rx="3" ry="3"/><rect x="1095.8503579209462" y="347.4769230769231" width="63.98904450669156" height="298.5230769230769" fill="#777ad5" rx="3" ry="3"/></g><path d="M0.54,-5.44L5.82,-15.47L9.14,-15.47L3.72,-5.44L0.54,-5.44ZM0.54,-3.7L0.54,-5.44L1.64,-6.3L12.73,-6.3L12.73,-3.7L0.54,-3.7ZM7.85,0L7.85,-9.84L10.79,-9.84L10.79,0L7.85,0ZM13.62,-1.71L19.44,-7.8Q20.06,-8.46 20.45,-8.98Q20.83,-9.51 21.01,-9.98Q21.18,-10.44 21.18,-10.93Q21.18,-11.9 20.55,-12.45Q19.93,-13 18.94,-13Q17.93,-13 17.14,-12.48Q16.36,-11.95 15.68,-10.81L13.65,-12.54Q14.56,-14.1 15.94,-14.9Q17.31,-15.7 19.1,-15.7Q20.62,-15.7 21.75,-15.11Q22.88,-14.53 23.5,-13.47Q24.12,-12.41 24.12,-11Q24.12,-10.05 23.88,-9.28Q23.65,-8.51 23.11,-7.75Q22.56,-7 21.63,-6.04L17.37,-1.72L13.62,-1.71ZM13.62,0L13.62,-1.71L16.16,-2.6L24.43,-2.6L24.43,0L13.62,0Z" transform="translate(197.95,260.06)" fill="rgb(17, 20, 31)" opacity="0.75" stroke="none" stroke-width="1px" stroke-opacity="1"/><path d="M0.57,-1.71L6.39,-7.8Q7.01,-8.46 7.4,-8.98Q7.79,-9.51 7.96,-9.98Q8.13,-10.44 8.13,-10.93Q8.13,-11.9 7.51,-12.45Q6.88,-13 5.9,-13Q4.88,-13 4.1,-12.48Q3.31,-11.95 2.63,-10.81L0.6,-12.54Q1.52,-14.1 2.89,-14.9Q4.26,-15.7 6.06,-15.7Q7.57,-15.7 8.7,-15.11Q9.83,-14.53 10.45,-13.47Q11.07,-12.41 11.07,-11Q11.07,-10.05 10.84,-9.28Q10.6,-8.51 10.06,-7.75Q9.51,-7 8.58,-6.04L4.33,-1.72L0.57,-1.71ZM0.57,0L0.57,-1.71L3.12,-2.6L11.39,-2.6L11.39,0L0.57,0ZM18.27,0.23Q16.64,0.23 15.43,-0.35Q14.23,-0.93 13.56,-1.96Q12.89,-2.99 12.89,-4.3Q12.89,-5.36 13.31,-6.24Q13.72,-7.12 14.5,-7.72Q15.28,-8.33 16.34,-8.57L16.27,-7.86Q15.39,-8.08 14.78,-8.63Q14.17,-9.17 13.86,-9.93Q13.54,-10.69 13.54,-11.51Q13.54,-12.75 14.15,-13.69Q14.75,-14.64 15.83,-15.18Q16.9,-15.71 18.27,-15.71Q19.66,-15.71 20.72,-15.18Q21.79,-14.64 22.39,-13.69Q23,-12.75 23,-11.51Q23,-10.69 22.68,-9.93Q22.37,-9.17 21.77,-8.63Q21.16,-8.08 20.27,-7.86L20.2,-8.57Q21.27,-8.33 22.05,-7.72Q22.82,-7.12 23.23,-6.24Q23.65,-5.36 23.65,-4.3Q23.65,-2.99 22.99,-1.96Q22.33,-0.93 21.12,-0.35Q19.9,0.23 18.27,0.23ZM18.27,-2.39Q19.01,-2.39 19.57,-2.69Q20.14,-2.99 20.47,-3.52Q20.8,-4.04 20.8,-4.71Q20.8,-5.39 20.47,-5.9Q20.14,-6.42 19.57,-6.72Q19.01,-7.02 18.27,-7.02Q17.53,-7.02 16.97,-6.72Q16.4,-6.42 16.07,-5.9Q15.75,-5.39 15.75,-4.71Q15.75,-4.04 16.07,-3.52Q16.4,-2.99 16.97,-2.69Q17.53,-2.39 18.27,-2.39ZM18.27,-9.27Q19.14,-9.27 19.69,-9.83Q20.25,-10.38 20.25,-11.24Q20.25,-12.11 19.69,-12.66Q19.14,-13.21 18.27,-13.21Q17.42,-13.21 16.85,-12.67Q16.29,-12.12 16.29,-11.25Q16.29,-10.39 16.85,-9.83Q17.42,-9.27 18.27,-9.27Z" transform="translate(266.44,386.71)" fill="rgb(17, 20, 31)" opacity="0.75" stroke="none" stroke-width="1px" stroke-opacity="1"/><path d="M3.54,0L3.54,-15.47L6.5,-15.47L6.5,0L3.54,0ZM0.5,-12.86L0.5,-15.47L6.28,-15.47L6.28,-12.86L0.5,-12.86ZM8.65,-1.71L14.47,-7.8Q15.09,-8.46 15.47,-8.98Q15.86,-9.51 16.04,-9.98Q16.21,-10.44 16.21,-10.93Q16.21,-11.9 15.58,-12.45Q14.95,-13 13.97,-13Q12.96,-13 12.17,-12.48Q11.39,-11.95 10.71,-10.81L8.67,-12.54Q9.59,-14.1 10.96,-14.9Q12.34,-15.7 14.13,-15.7Q15.65,-15.7 16.78,-15.11Q17.91,-14.53 18.53,-13.47Q19.15,-12.41 19.15,-11Q19.15,-10.05 18.91,-9.28Q18.68,-8.51 18.13,-7.75Q17.59,-7 16.65,-6.04L12.4,-1.72L8.65,-1.71ZM8.65,0L8.65,-1.71L11.19,-2.6L19.46,-2.6L19.46,0L8.65,0Z" transform="translate(336.58,531.45)" fill="rgb(17, 20, 31)" opacity="0.75" stroke="none" stroke-width="1px" stroke-opacity="1"/><path d="M0.54,-5.44L5.82,-15.47L9.14,-15.47L3.72,-5.44L0.54,-5.44ZM0.54,-3.7L0.54,-5.44L1.64,-6.3L12.73,-6.3L12.73,-3.7L0.54,-3.7ZM7.85,0L7.85,-9.84L10.79,-9.84L10.79,0L7.85,0ZM15.53,0L20.23,-6.55L21.32,-6.87Q21.06,-6.37 20.72,-5.99Q20.38,-5.62 19.84,-5.41Q19.31,-5.21 18.46,-5.21Q17.09,-5.21 15.95,-5.86Q14.82,-6.51 14.14,-7.65Q13.46,-8.79 13.46,-10.26Q13.46,-11.78 14.21,-13.01Q14.97,-14.24 16.23,-14.97Q17.5,-15.7 19.07,-15.7Q20.66,-15.7 21.92,-14.98Q23.19,-14.26 23.92,-13.05Q24.66,-11.84 24.66,-10.33Q24.66,-8.28 23.24,-6.2L18.95,0L15.53,0ZM19.07,-7.49Q19.83,-7.49 20.44,-7.85Q21.04,-8.21 21.38,-8.84Q21.72,-9.46 21.72,-10.23Q21.72,-11.03 21.38,-11.66Q21.04,-12.28 20.44,-12.64Q19.83,-13 19.07,-13Q18.3,-13 17.7,-12.64Q17.1,-12.28 16.75,-11.66Q16.4,-11.03 16.4,-10.23Q16.4,-9.44 16.75,-8.83Q17.1,-8.21 17.71,-7.85Q18.32,-7.49 19.07,-7.49Z" transform="translate(458.28,196.74)" fill="rgb(17, 20, 31)" opacity="0.75" stroke="none" stroke-width="1px" stroke-opacity="1"/><path d="M5.48,0.23Q3.91,0.23 2.62,-0.33Q1.33,-0.89 0.43,-1.96L2.41,-3.92Q2.85,-3.26 3.67,-2.86Q4.49,-2.46 5.43,-2.46Q6.31,-2.46 6.95,-2.78Q7.59,-3.1 7.95,-3.68Q8.32,-4.27 8.32,-5.04Q8.32,-5.85 7.95,-6.42Q7.58,-6.98 6.91,-7.3Q6.23,-7.61 5.27,-7.61Q4.86,-7.61 4.42,-7.55Q3.99,-7.5 3.67,-7.39L4.99,-9.07Q5.53,-9.25 6.07,-9.37Q6.61,-9.49 7.09,-9.49Q8.28,-9.49 9.23,-8.92Q10.19,-8.35 10.74,-7.33Q11.3,-6.31 11.3,-4.92Q11.3,-3.39 10.57,-2.23Q9.84,-1.07 8.54,-0.42Q7.23,0.23 5.48,0.23ZM3.67,-7.39L3.67,-9.1L7.62,-13.71L11.07,-13.76L6.96,-9.05L3.67,-7.39ZM1.3,-12.86L1.3,-15.47L11.07,-15.47L11.07,-13.76L8.63,-12.86L1.3,-12.86ZM17.61,0.23Q16,0.23 14.68,-0.33Q13.35,-0.89 12.46,-1.96L14.44,-3.92Q14.88,-3.26 15.71,-2.86Q16.53,-2.46 17.53,-2.46Q18.43,-2.46 19.1,-2.79Q19.77,-3.11 20.16,-3.72Q20.54,-4.33 20.54,-5.15Q20.54,-6.01 20.16,-6.6Q19.78,-7.19 19.14,-7.5Q18.49,-7.8 17.7,-7.8Q16.87,-7.8 16.19,-7.6Q15.52,-7.4 14.92,-6.94L15.09,-8.83Q15.52,-9.26 15.98,-9.53Q16.44,-9.81 17.02,-9.95Q17.61,-10.09 18.4,-10.09Q20.08,-10.09 21.22,-9.4Q22.36,-8.71 22.95,-7.56Q23.53,-6.41 23.53,-5.02Q23.53,-3.49 22.79,-2.31Q22.04,-1.12 20.71,-0.45Q19.38,0.23 17.61,0.23ZM14.92,-6.94L13.48,-8.33L14.19,-15.47L16.9,-15.47L16.1,-8.22L14.92,-6.94ZM14.64,-12.86L14.19,-15.47L22.68,-15.47L22.68,-12.86L14.64,-12.86Z" transform="translate(526.88,323.38)" fill="rgb(17, 20, 31)" opacity="0.75" stroke="none" stroke-width="1px" stroke-opacity="1"/><path d="M3.54,0L3.54,-15.47L6.5,-15.47L6.5,0L3.54,0ZM0.5,-12.86L0.5,-15.47L6.28,-15.47L6.28,-12.86L0.5,-12.86ZM14.18,0.23Q12.55,0.23 11.34,-0.35Q10.14,-0.93 9.47,-1.96Q8.8,-2.99 8.8,-4.3Q8.8,-5.36 9.22,-6.24Q9.63,-7.12 10.41,-7.72Q11.19,-8.33 12.25,-8.57L12.18,-7.86Q11.3,-8.08 10.69,-8.63Q10.08,-9.17 9.77,-9.93Q9.45,-10.69 9.45,-11.51Q9.45,-12.75 10.05,-13.69Q10.66,-14.64 11.73,-15.18Q12.81,-15.71 14.18,-15.71Q15.57,-15.71 16.63,-15.18Q17.69,-14.64 18.3,-13.69Q18.9,-12.75 18.9,-11.51Q18.9,-10.69 18.59,-9.93Q18.28,-9.17 17.67,-8.63Q17.07,-8.08 16.18,-7.86L16.1,-8.57Q17.18,-8.33 17.95,-7.72Q18.73,-7.12 19.14,-6.24Q19.56,-5.36 19.56,-4.3Q19.56,-2.99 18.9,-1.96Q18.24,-0.93 17.03,-0.35Q15.81,0.23 14.18,0.23ZM14.18,-2.39Q14.92,-2.39 15.48,-2.69Q16.05,-2.99 16.38,-3.52Q16.7,-4.04 16.7,-4.71Q16.7,-5.39 16.38,-5.9Q16.05,-6.42 15.48,-6.72Q14.92,-7.02 14.18,-7.02Q13.44,-7.02 12.88,-6.72Q12.31,-6.42 11.98,-5.9Q11.65,-5.39 11.65,-4.71Q11.65,-4.04 11.98,-3.52Q12.31,-2.99 12.88,-2.69Q13.44,-2.39 14.18,-2.39ZM14.18,-9.27Q15.05,-9.27 15.6,-9.83Q16.15,-10.38 16.15,-11.24Q16.15,-12.11 15.6,-12.66Q15.05,-13.21 14.18,-13.21Q13.33,-13.21 12.76,-12.67Q12.2,-12.12 12.2,-11.25Q12.2,-10.39 12.76,-9.83Q13.33,-9.27 14.18,-9.27Z" transform="translate(596.94,477.17)" fill="rgb(17, 20, 31)" opacity="0.75" stroke="none" stroke-width="1px" stroke-opacity="1"/><path d="M5.51,0.23Q3.9,0.23 2.58,-0.33Q1.25,-0.89 0.36,-1.96L2.34,-3.92Q2.78,-3.26 3.61,-2.86Q4.43,-2.46 5.43,-2.46Q6.33,-2.46 7,-2.79Q7.67,-3.11 8.06,-3.72Q8.44,-4.33 8.44,-5.15Q8.44,-6.01 8.06,-6.6Q7.68,-7.19 7.04,-7.5Q6.39,-7.8 5.6,-7.8Q4.77,-7.8 4.09,-7.6Q3.42,-7.4 2.82,-6.94L2.99,-8.83Q3.42,-9.26 3.88,-9.53Q4.34,-9.81 4.92,-9.95Q5.51,-10.09 6.3,-10.09Q7.98,-10.09 9.12,-9.4Q10.26,-8.71 10.85,-7.56Q11.43,-6.41 11.43,-5.02Q11.43,-3.49 10.69,-2.31Q9.94,-1.12 8.61,-0.45Q7.28,0.23 5.51,0.23ZM2.82,-6.94L1.38,-8.33L2.09,-15.47L4.8,-15.47L4,-8.22L2.82,-6.94ZM2.54,-12.86L2.09,-15.47L10.58,-15.47L10.58,-12.86L2.54,-12.86ZM17.67,0.23Q16.07,0.23 14.74,-0.33Q13.42,-0.89 12.53,-1.96L14.51,-3.92Q14.95,-3.26 15.77,-2.86Q16.6,-2.46 17.59,-2.46Q18.5,-2.46 19.17,-2.79Q19.84,-3.11 20.22,-3.72Q20.61,-4.33 20.61,-5.15Q20.61,-6.01 20.23,-6.6Q19.85,-7.19 19.2,-7.5Q18.56,-7.8 17.77,-7.8Q16.93,-7.8 16.26,-7.6Q15.59,-7.4 14.98,-6.94L15.15,-8.83Q15.58,-9.26 16.04,-9.53Q16.51,-9.81 17.09,-9.95Q17.67,-10.09 18.46,-10.09Q20.14,-10.09 21.28,-9.4Q22.42,-8.71 23.01,-7.56Q23.6,-6.41 23.6,-5.02Q23.6,-3.49 22.85,-2.31Q22.1,-1.12 20.77,-0.45Q19.44,0.23 17.67,0.23ZM14.98,-6.94L13.54,-8.33L14.26,-15.47L16.97,-15.47L16.17,-8.22L14.98,-6.94ZM14.71,-12.86L14.26,-15.47L22.74,-15.47L22.74,-12.86L14.71,-12.86Z" transform="translate(719.15,142.46)" fill="rgb(17, 20, 31)" opacity="0.75" stroke="none" stroke-width="1px" stroke-opacity="1"/><path d="M0.54,-5.44L5.82,-15.47L9.14,-15.47L3.72,-5.44L0.54,-5.44ZM0.54,-3.7L0.54,-5.44L1.64,-6.3L12.73,-6.3L12.73,-3.7L0.54,-3.7ZM7.85,0L7.85,-9.84L10.79,-9.84L10.79,0L7.85,0ZM16.08,0L16.08,-15.47L19.04,-15.47L19.04,0L16.08,0ZM13.04,-12.86L13.04,-15.47L18.82,-15.47L18.82,-12.86L13.04,-12.86Z" transform="translate(789.08,269.11)" fill="rgb(17, 20, 31)" opacity="0.75" stroke="none" stroke-width="1px" stroke-opacity="1"/><path d="M0.57,-1.71L6.39,-7.8Q7.01,-8.46 7.4,-8.98Q7.79,-9.51 7.96,-9.98Q8.13,-10.44 8.13,-10.93Q8.13,-11.9 7.51,-12.45Q6.88,-13 5.9,-13Q4.88,-13 4.1,-12.48Q3.31,-11.95 2.63,-10.81L0.6,-12.54Q1.52,-14.1 2.89,-14.9Q4.26,-15.7 6.06,-15.7Q7.57,-15.7 8.7,-15.11Q9.83,-14.53 10.45,-13.47Q11.07,-12.41 11.07,-11Q11.07,-10.05 10.84,-9.28Q10.6,-8.51 10.06,-7.75Q9.51,-7 8.58,-6.04L4.33,-1.72L0.57,-1.71ZM0.57,0L0.57,-1.71L3.12,-2.6L11.39,-2.6L11.39,0L0.57,0ZM12.71,-5.44L17.99,-15.47L21.3,-15.47L15.89,-5.44L12.71,-5.44ZM12.71,-3.7L12.71,-5.44L13.81,-6.3L24.9,-6.3L24.9,-3.7L12.71,-3.7ZM20.02,0L20.02,-9.84L22.96,-9.84L22.96,0L20.02,0Z" transform="translate(854.74,422.89)" fill="rgb(17, 20, 31)" opacity="0.75" stroke="none" stroke-width="1px" stroke-opacity="1"/><path d="M6.24,0.23Q4.66,0.23 3.39,-0.49Q2.12,-1.2 1.39,-2.42Q0.65,-3.64 0.65,-5.14Q0.65,-7.18 2.07,-9.27L6.36,-15.47L9.78,-15.47L5.1,-8.92L3.99,-8.59Q4.25,-9.11 4.59,-9.48Q4.93,-9.85 5.48,-10.05Q6.02,-10.26 6.85,-10.26Q8.24,-10.26 9.37,-9.61Q10.49,-8.96 11.17,-7.83Q11.85,-6.69 11.85,-5.2Q11.85,-3.69 11.11,-2.46Q10.36,-1.22 9.09,-0.49Q7.82,0.23 6.24,0.23ZM6.24,-2.46Q7.01,-2.46 7.61,-2.82Q8.21,-3.18 8.56,-3.82Q8.91,-4.45 8.91,-5.24Q8.91,-6.02 8.56,-6.65Q8.21,-7.27 7.61,-7.62Q7.01,-7.97 6.24,-7.97Q5.48,-7.97 4.88,-7.61Q4.27,-7.25 3.93,-6.64Q3.59,-6.02 3.59,-5.24Q3.59,-4.45 3.93,-3.82Q4.27,-3.18 4.88,-2.82Q5.48,-2.46 6.24,-2.46ZM17.74,0.23Q16.16,0.23 14.87,-0.33Q13.58,-0.89 12.69,-1.96L14.66,-3.92Q15.1,-3.26 15.92,-2.86Q16.74,-2.46 17.69,-2.46Q18.56,-2.46 19.2,-2.78Q19.84,-3.1 20.21,-3.68Q20.57,-4.27 20.57,-5.04Q20.57,-5.85 20.2,-6.42Q19.84,-6.98 19.16,-7.3Q18.48,-7.61 17.52,-7.61Q17.12,-7.61 16.68,-7.55Q16.24,-7.5 15.93,-7.39L17.25,-9.07Q17.79,-9.25 18.33,-9.37Q18.86,-9.49 19.34,-9.49Q20.53,-9.49 21.49,-8.92Q22.44,-8.35 23,-7.33Q23.56,-6.31 23.56,-4.92Q23.56,-3.39 22.83,-2.23Q22.1,-1.07 20.79,-0.42Q19.49,0.23 17.74,0.23ZM15.93,-7.39L15.93,-9.1L19.88,-13.71L23.33,-13.76L19.22,-9.05L15.93,-7.39ZM13.56,-12.86L13.56,-15.47L23.33,-15.47L23.33,-13.76L20.88,-12.86L13.56,-12.86Z" transform="translate(979.52,70.09)" fill="rgb(17, 20, 31)" opacity="0.75" stroke="none" stroke-width="1px" stroke-opacity="1"/><path d="M5.51,0.23Q3.9,0.23 2.58,-0.33Q1.25,-0.89 0.36,-1.96L2.34,-3.92Q2.78,-3.26 3.61,-2.86Q4.43,-2.46 5.43,-2.46Q6.33,-2.46 7,-2.79Q7.67,-3.11 8.06,-3.72Q8.44,-4.33 8.44,-5.15Q8.44,-6.01 8.06,-6.6Q7.68,-7.19 7.04,-7.5Q6.39,-7.8 5.6,-7.8Q4.77,-7.8 4.09,-7.6Q3.42,-7.4 2.82,-6.94L2.99,-8.83Q3.42,-9.26 3.88,-9.53Q4.34,-9.81 4.92,-9.95Q5.51,-10.09 6.3,-10.09Q7.98,-10.09 9.12,-9.4Q10.26,-8.71 10.85,-7.56Q11.43,-6.41 11.43,-5.02Q11.43,-3.49 10.69,-2.31Q9.94,-1.12 8.61,-0.45Q7.28,0.23 5.51,0.23ZM2.82,-6.94L1.38,-8.33L2.09,-15.47L4.8,-15.47L4,-8.22L2.82,-6.94ZM2.54,-12.86L2.09,-15.47L10.58,-15.47L10.58,-12.86L2.54,-12.86ZM12.74,-1.71L18.56,-7.8Q19.18,-8.46 19.57,-8.98Q19.95,-9.51 20.13,-9.98Q20.3,-10.44 20.3,-10.93Q20.3,-11.9 19.67,-12.45Q19.05,-13 18.06,-13Q17.05,-13 16.26,-12.48Q15.48,-11.95 14.8,-10.81L12.77,-12.54Q13.68,-14.1 15.06,-14.9Q16.43,-15.7 18.22,-15.7Q19.74,-15.7 20.87,-15.11Q22,-14.53 22.62,-13.47Q23.24,-12.41 23.24,-11Q23.24,-10.05 23,-9.28Q22.77,-8.51 22.23,-7.75Q21.68,-7 20.75,-6.04L16.49,-1.72L12.74,-1.71ZM12.74,0L12.74,-1.71L15.28,-2.6L23.55,-2.6L23.55,0L12.74,0Z" transform="translate(1047.61,169.6)" fill="rgb(17, 20, 31)" opacity="0.75" stroke="none" stroke-width="1px" stroke-opacity="1"/><path d="M5.48,0.23Q3.91,0.23 2.62,-0.33Q1.33,-0.89 0.43,-1.96L2.41,-3.92Q2.85,-3.26 3.67,-2.86Q4.49,-2.46 5.43,-2.46Q6.31,-2.46 6.95,-2.78Q7.59,-3.1 7.95,-3.68Q8.32,-4.27 8.32,-5.04Q8.32,-5.85 7.95,-6.42Q7.58,-6.98 6.91,-7.3Q6.23,-7.61 5.27,-7.61Q4.86,-7.61 4.42,-7.55Q3.99,-7.5 3.67,-7.39L4.99,-9.07Q5.53,-9.25 6.07,-9.37Q6.61,-9.49 7.09,-9.49Q8.28,-9.49 9.23,-8.92Q10.19,-8.35 10.74,-7.33Q11.3,-6.31 11.3,-4.92Q11.3,-3.39 10.57,-2.23Q9.84,-1.07 8.54,-0.42Q7.23,0.23 5.48,0.23ZM3.67,-7.39L3.67,-9.1L7.62,-13.71L11.07,-13.76L6.96,-9.05L3.67,-7.39ZM1.3,-12.86L1.3,-15.47L11.07,-15.47L11.07,-13.76L8.63,-12.86L1.3,-12.86ZM17.58,0.23Q16.01,0.23 14.72,-0.33Q13.43,-0.89 12.53,-1.96L14.51,-3.92Q14.95,-3.26 15.77,-2.86Q16.59,-2.46 17.53,-2.46Q18.41,-2.46 19.05,-2.78Q19.69,-3.1 20.05,-3.68Q20.42,-4.27 20.42,-5.04Q20.42,-5.85 20.05,-6.42Q19.68,-6.98 19.01,-7.3Q18.33,-7.61 17.37,-7.61Q16.96,-7.61 16.52,-7.55Q16.09,-7.5 15.77,-7.39L17.09,-9.07Q17.63,-9.25 18.17,-9.37Q18.71,-9.49 19.19,-9.49Q20.38,-9.49 21.33,-8.92Q22.29,-8.35 22.84,-7.33Q23.4,-6.31 23.4,-4.92Q23.4,-3.39 22.67,-2.23Q21.95,-1.07 20.64,-0.42Q19.33,0.23 17.58,0.23ZM15.77,-7.39L15.77,-9.1L19.72,-13.71L23.17,-13.76L19.06,-9.05L15.77,-7.39ZM13.4,-12.86L13.4,-15.47L23.17,-15.47L23.17,-13.76L20.73,-12.86L13.4,-12.86Z" transform="translate(1115.74,341.48)" fill="rgb(17, 20, 31)" opacity="0.75" stroke="none" stroke-width="1px" stroke-opacity="1"/><g class="legend" data-canvas-input="legendPosition"><rect x="52" y="760.666" width="18.04" height="18.04" rx="3" fill="#0c8aca"/><path d="M5.96,0.22Q4.14,0.22 2.86,-0.44Q1.58,-1.1 0.57,-2.38L2.29,-4.09Q2.93,-3.17 3.81,-2.65Q4.69,-2.13 6.05,-2.13Q7.33,-2.13 8.08,-2.66Q8.84,-3.19 8.84,-4.11Q8.84,-4.88 8.45,-5.37Q8.05,-5.85 7.4,-6.17Q6.75,-6.49 5.97,-6.74Q5.19,-7 4.41,-7.31Q3.63,-7.63 2.98,-8.12Q2.33,-8.6 1.94,-9.37Q1.54,-10.14 1.54,-11.33Q1.54,-12.69 2.21,-13.65Q2.88,-14.61 4.03,-15.11Q5.17,-15.62 6.58,-15.62Q8.1,-15.62 9.3,-15.03Q10.49,-14.43 11.24,-13.51L9.53,-11.79Q8.87,-12.54 8.15,-12.9Q7.44,-13.27 6.51,-13.27Q5.37,-13.27 4.72,-12.8Q4.07,-12.34 4.07,-11.51Q4.07,-10.8 4.47,-10.37Q4.86,-9.94 5.51,-9.65Q6.16,-9.35 6.94,-9.09Q7.72,-8.82 8.5,-8.49Q9.28,-8.16 9.93,-7.64Q10.58,-7.13 10.98,-6.31Q11.37,-5.5 11.37,-4.27Q11.37,-2.2 9.91,-0.99Q8.45,0.22 5.96,0.22ZM13.9,0L13.9,-15.4L16.43,-15.4L16.43,0L13.9,0ZM15.64,0L15.64,-2.31L23.69,-2.31L23.69,0L15.64,0ZM26,0L26,-15.4L28.53,-15.4L28.53,0L26,0ZM27.74,0L27.74,-2.31L36.37,-2.31L36.37,0L27.74,0ZM27.74,-6.75L27.74,-8.98L35.62,-8.98L35.62,-6.75L27.74,-6.75ZM27.74,-13.09L27.74,-15.4L36.26,-15.4L36.26,-13.09L27.74,-13.09ZM42.88,0.22Q41.05,0.22 39.78,-0.44Q38.5,-1.1 37.49,-2.38L39.2,-4.09Q39.84,-3.17 40.72,-2.65Q41.6,-2.13 42.97,-2.13Q44.24,-2.13 45,-2.66Q45.76,-3.19 45.76,-4.11Q45.76,-4.88 45.36,-5.37Q44.97,-5.85 44.32,-6.17Q43.67,-6.49 42.89,-6.74Q42.11,-7 41.33,-7.31Q40.55,-7.63 39.9,-8.12Q39.25,-8.6 38.85,-9.37Q38.46,-10.14 38.46,-11.33Q38.46,-12.69 39.13,-13.65Q39.8,-14.61 40.94,-15.11Q42.09,-15.62 43.49,-15.62Q45.01,-15.62 46.21,-15.03Q47.41,-14.43 48.16,-13.51L46.44,-11.79Q45.78,-12.54 45.07,-12.9Q44.35,-13.27 43.43,-13.27Q42.28,-13.27 41.64,-12.8Q40.99,-12.34 40.99,-11.51Q40.99,-10.8 41.38,-10.37Q41.78,-9.94 42.43,-9.65Q43.08,-9.35 43.86,-9.09Q44.64,-8.82 45.42,-8.49Q46.2,-8.16 46.85,-7.64Q47.5,-7.13 47.89,-6.31Q48.29,-5.5 48.29,-4.27Q48.29,-2.2 46.83,-0.99Q45.36,0.22 42.88,0.22Z" transform="translate(78.04,776)" fill="rgb(17, 20, 31)" opacity="0.9" stroke="none" stroke-width="1px" stroke-opacity="1"/><rect x="151.32" y="760.666" width="18.04" height="18.04" rx="3" fill="#009661"/><path d="M3.41,-6.53L3.41,-8.62L7.3,-8.62Q8.47,-8.62 9.12,-9.23Q9.77,-9.83 9.77,-10.91Q9.77,-11.88 9.13,-12.54Q8.49,-13.2 7.33,-13.2L3.41,-13.2L3.41,-15.4L7.44,-15.4Q8.89,-15.4 9.99,-14.82Q11.09,-14.23 11.69,-13.23Q12.3,-12.23 12.3,-10.96Q12.3,-9.61 11.69,-8.62Q11.09,-7.63 9.99,-7.08Q8.89,-6.53 7.44,-6.53L3.41,-6.53ZM1.67,0L1.67,-15.4L4.2,-15.4L4.2,0L1.67,0ZM10.12,0L4.73,-6.69L7.08,-7.55L13.31,0L10.12,0ZM18.96,0.22Q17.53,0.22 16.38,-0.51Q15.22,-1.23 14.55,-2.47Q13.88,-3.72 13.88,-5.26Q13.88,-6.82 14.55,-8.06Q15.22,-9.31 16.38,-10.04Q17.53,-10.78 18.96,-10.78Q20.17,-10.78 21.11,-10.26Q22.04,-9.75 22.59,-8.84Q23.14,-7.94 23.14,-6.8L23.14,-3.76Q23.14,-2.62 22.61,-1.72Q22.07,-0.81 21.12,-0.3Q20.17,0.22 18.96,0.22ZM19.36,-2.07Q20.7,-2.07 21.53,-2.97Q22.35,-3.87 22.35,-5.28Q22.35,-6.23 21.98,-6.95Q21.6,-7.68 20.93,-8.08Q20.26,-8.49 19.36,-8.49Q18.48,-8.49 17.81,-8.08Q17.14,-7.68 16.75,-6.95Q16.37,-6.23 16.37,-5.28Q16.37,-4.33 16.75,-3.61Q17.14,-2.88 17.81,-2.47Q18.48,-2.07 19.36,-2.07ZM22.2,0L22.2,-2.84L22.62,-5.41L22.2,-7.96L22.2,-10.56L24.62,-10.56L24.62,0L22.2,0ZM34.54,0L34.54,-6.09Q34.54,-7.15 33.87,-7.83Q33.2,-8.51 32.15,-8.51Q31.43,-8.51 30.89,-8.21Q30.34,-7.9 30.03,-7.35Q29.72,-6.8 29.72,-6.09L28.78,-6.62Q28.78,-7.83 29.3,-8.77Q29.83,-9.7 30.76,-10.24Q31.7,-10.78 32.88,-10.78Q34.06,-10.78 34.98,-10.17Q35.9,-9.57 36.43,-8.61Q36.96,-7.66 36.96,-6.62L36.96,0L34.54,0ZM27.3,0L27.3,-10.56L29.72,-10.56L29.72,0L27.3,0ZM44.29,0.22Q42.72,0.22 41.46,-0.51Q40.19,-1.23 39.47,-2.49Q38.74,-3.74 38.74,-5.28Q38.74,-6.84 39.47,-8.08Q40.19,-9.33 41.46,-10.05Q42.72,-10.78 44.29,-10.78Q45.52,-10.78 46.58,-10.31Q47.65,-9.83 48.4,-8.95L46.82,-7.35Q46.35,-7.9 45.71,-8.17Q45.06,-8.45 44.29,-8.45Q43.38,-8.45 42.69,-8.04Q42,-7.63 41.61,-6.93Q41.23,-6.23 41.23,-5.28Q41.23,-4.36 41.61,-3.64Q42,-2.93 42.69,-2.52Q43.38,-2.11 44.29,-2.11Q45.06,-2.11 45.71,-2.39Q46.35,-2.66 46.82,-3.21L48.4,-1.61Q47.65,-0.73 46.58,-0.25Q45.52,0.22 44.29,0.22ZM57.38,0L57.38,-6.09Q57.38,-7.15 56.71,-7.83Q56.03,-8.51 54.98,-8.51Q54.27,-8.51 53.72,-8.21Q53.17,-7.9 52.87,-7.35Q52.56,-6.8 52.56,-6.09L51.61,-6.62Q51.61,-7.83 52.14,-8.77Q52.67,-9.7 53.6,-10.24Q54.53,-10.78 55.71,-10.78Q56.89,-10.78 57.82,-10.25Q58.74,-9.72 59.27,-8.79Q59.8,-7.85 59.8,-6.62L59.8,0L57.38,0ZM50.14,0L50.14,-15.84L52.56,-15.84L52.56,0L50.14,0ZM67.17,0.22Q65.58,0.22 64.32,-0.49Q63.05,-1.21 62.32,-2.46Q61.58,-3.72 61.58,-5.28Q61.58,-6.84 62.3,-8.08Q63.03,-9.33 64.27,-10.05Q65.52,-10.78 67.03,-10.78Q68.51,-10.78 69.64,-10.1Q70.77,-9.42 71.42,-8.23Q72.07,-7.04 72.07,-5.52Q72.07,-5.26 72.04,-4.98Q72.01,-4.71 71.94,-4.38L63.27,-4.38L63.27,-6.36L70.69,-6.36L69.78,-5.57Q69.74,-6.53 69.41,-7.19Q69.08,-7.85 68.47,-8.21Q67.87,-8.56 66.99,-8.56Q66.07,-8.56 65.38,-8.16Q64.7,-7.77 64.33,-7.05Q63.95,-6.34 63.95,-5.35Q63.95,-4.36 64.35,-3.61Q64.75,-2.86 65.47,-2.45Q66.2,-2.05 67.14,-2.05Q67.96,-2.05 68.65,-2.33Q69.34,-2.62 69.83,-3.17L71.37,-1.61Q70.6,-0.7 69.5,-0.24Q68.4,0.22 67.17,0.22ZM74.01,0L74.01,-10.56L76.43,-10.56L76.43,0L74.01,0ZM76.43,-5.87L75.59,-6.29Q75.59,-8.29 76.48,-9.54Q77.37,-10.78 79.18,-10.78Q79.97,-10.78 80.61,-10.49Q81.25,-10.21 81.8,-9.57L80.21,-7.94Q79.93,-8.25 79.57,-8.38Q79.22,-8.51 78.76,-8.51Q77.75,-8.51 77.09,-7.88Q76.43,-7.24 76.43,-5.87Z" transform="translate(177.36,776)" fill="rgb(17, 20, 31)" opacity="0.9" stroke="none" stroke-width="1px" stroke-opacity="1"/><rect x="287.6" y="760.666" width="18.04" height="18.04" rx="3" fill="#777ad5"/><path d="M1.67,0L1.67,-15.4L4.2,-15.4L4.2,0L1.67,0ZM3.41,0L3.41,-2.31L12.03,-2.31L12.03,0L3.41,0ZM3.41,-6.75L3.41,-8.98L11.29,-8.98L11.29,-6.75L3.41,-6.75ZM3.41,-13.09L3.41,-15.4L11.92,-15.4L11.92,-13.09L3.41,-13.09ZM18.57,0.22Q17.14,0.22 15.98,-0.51Q14.83,-1.23 14.16,-2.47Q13.49,-3.72 13.49,-5.26Q13.49,-6.83 14.16,-8.07Q14.83,-9.31 15.98,-10.04Q17.13,-10.78 18.57,-10.78Q19.78,-10.78 20.71,-10.26Q21.65,-9.75 22.2,-8.84Q22.75,-7.94 22.75,-6.8L22.75,-3.76Q22.75,-2.62 22.21,-1.72Q21.67,-0.81 20.72,-0.3Q19.78,0.22 18.57,0.22ZM18.96,-2.07Q19.87,-2.07 20.53,-2.48Q21.2,-2.89 21.58,-3.61Q21.96,-4.33 21.96,-5.28Q21.96,-6.23 21.58,-6.95Q21.2,-7.67 20.53,-8.08Q19.87,-8.49 18.97,-8.49Q18.08,-8.49 17.41,-8.08Q16.75,-7.67 16.36,-6.95Q15.97,-6.22 15.97,-5.28Q15.97,-4.33 16.36,-3.61Q16.74,-2.88 17.42,-2.48Q18.09,-2.07 18.96,-2.07ZM24.22,0L21.8,0L21.8,-2.84L22.22,-5.41L21.8,-7.96L21.8,-15.84L24.22,-15.84L24.22,0ZM31.31,4.62Q29.63,4.62 28.38,4.01Q27.13,3.41 26.36,2.31L27.94,0.73Q28.58,1.52 29.39,1.91Q30.21,2.31 31.35,2.31Q32.78,2.31 33.62,1.57Q34.45,0.84 34.45,-0.44L34.45,-3.04L34.87,-5.37L34.45,-7.72L34.45,-10.56L36.87,-10.56L36.87,-0.44Q36.87,1.08 36.17,2.21Q35.46,3.34 34.21,3.98Q32.96,4.62 31.31,4.62ZM31.2,-0.22Q29.79,-0.22 28.65,-0.91Q27.52,-1.61 26.87,-2.82Q26.22,-4.03 26.22,-5.52Q26.22,-7.02 26.87,-8.21Q27.52,-9.39 28.65,-10.09Q29.79,-10.78 31.2,-10.78Q32.45,-10.78 33.4,-10.27Q34.34,-9.77 34.87,-8.88Q35.4,-7.99 35.4,-6.8L35.4,-4.2Q35.4,-3.04 34.86,-2.13Q34.32,-1.23 33.37,-0.73Q32.43,-0.22 31.2,-0.22ZM31.68,-2.51Q32.56,-2.51 33.22,-2.88Q33.88,-3.26 34.24,-3.93Q34.61,-4.6 34.61,-5.5Q34.61,-6.4 34.24,-7.07Q33.88,-7.74 33.22,-8.12Q32.56,-8.49 31.68,-8.49Q30.8,-8.49 30.13,-8.12Q29.46,-7.74 29.08,-7.07Q28.71,-6.4 28.71,-5.5Q28.71,-4.62 29.08,-3.94Q29.46,-3.26 30.13,-2.88Q30.8,-2.51 31.68,-2.51ZM44.46,0.22Q42.88,0.22 41.61,-0.49Q40.35,-1.21 39.61,-2.46Q38.87,-3.72 38.87,-5.28Q38.87,-6.84 39.6,-8.08Q40.33,-9.33 41.57,-10.05Q42.81,-10.78 44.33,-10.78Q45.8,-10.78 46.94,-10.1Q48.07,-9.42 48.72,-8.23Q49.37,-7.04 49.37,-5.52Q49.37,-5.26 49.33,-4.98Q49.3,-4.71 49.24,-4.38L40.57,-4.38L40.57,-6.36L47.98,-6.36L47.08,-5.57Q47.04,-6.53 46.71,-7.19Q46.38,-7.85 45.77,-8.21Q45.17,-8.56 44.29,-8.56Q43.36,-8.56 42.68,-8.16Q42,-7.77 41.62,-7.05Q41.25,-6.34 41.25,-5.35Q41.25,-4.36 41.65,-3.61Q42.04,-2.86 42.77,-2.45Q43.49,-2.05 44.44,-2.05Q45.25,-2.05 45.95,-2.33Q46.64,-2.62 47.12,-3.17L48.66,-1.61Q47.89,-0.7 46.79,-0.24Q45.69,0.22 44.46,0.22Z" transform="translate(313.64,776)" fill="rgb(17, 20, 31)" opacity="0.9" stroke="none" stroke-width="1px" stroke-opacity="1"/></g></g>
</svg>