<svg xmlns="http://www.w3.org/2000/svg" xml:space="preserve" viewBox="0 0 142.907 20.451"><path fill="#0c322c" d="M10.226 0H132.68c5.665 0 10.226 4.56 10.226 10.226 0 5.665-4.56 10.225-10.226 10.225H10.226A10.203 10.203 0 0 1 0 10.226C0 4.56 4.56 0 10.226 0"/><path fill="#fff" d="M7.94 7.014v7.174h.8v-3.635h3.999v-.74h-4V7.196a.74.74 0 0 1 .752-.751h3.502v-.74H9.249c-.764 0-1.309.558-1.309 1.31m8.7 7.295c1.636 0 2.824-1.236 2.824-2.993v-.133c0-1.697-1.188-2.909-2.824-2.909s-2.835 1.212-2.835 2.933v.109c0 1.757 1.2 2.993 2.835 2.993m0-.69c-1.211 0-2.072-.946-2.072-2.303v-.11c0-1.308.86-2.24 2.072-2.24s2.048.908 2.048 2.217v.133c0 1.357-.836 2.302-2.048 2.302m6.495.69c.643 0 1.479-.267 1.951-1.078v.957h.703V8.396h-.751v3.296c0 1.272-.824 1.902-1.77 1.902-.92 0-1.61-.448-1.61-1.818v-3.38h-.764v3.502c0 1.708.945 2.411 2.241 2.411m4.569-.121h.775v-3.272c0-1.272.812-1.927 1.782-1.927.933 0 1.623.558 1.623 1.915v3.284h.776v-3.381c0-1.709-.921-2.533-2.218-2.533-.654 0-1.539.291-1.999 1.152v-1.03h-.74zm9.1.121c.957 0 1.757-.497 2.206-1.309v1.188h.702V5.342h-.775v4.156a2.41 2.41 0 0 0-2.133-1.224c-1.563 0-2.714 1.212-2.714 2.933v.109c0 1.781 1.115 2.993 2.714 2.993m.097-.69c-1.187 0-2.036-.922-2.036-2.303v-.11c0-1.332.849-2.24 2.036-2.24 1.2 0 2.084.944 2.084 2.326 0 1.393-.884 2.326-2.084 2.326m7.21.69c.812 0 1.551-.279 1.963-.69l-.436-.498c-.376.328-.885.473-1.503.473-1.26 0-2.084-.885-2.145-2.096h4.326c.219-1.951-.787-3.224-2.41-3.224-1.6 0-2.679 1.236-2.679 2.92v.122c0 1.77 1.175 2.993 2.884 2.993m-2.108-3.454c.12-1.15.824-1.902 1.902-1.902 1.006 0 1.709.715 1.684 1.902zm8.106 3.454c.958 0 1.757-.497 2.206-1.309v1.188h.702V5.342h-.775v4.156a2.41 2.41 0 0 0-2.133-1.224c-1.563 0-2.714 1.212-2.714 2.933v.109c0 1.781 1.115 2.993 2.714 2.993m.097-.69c-1.187 0-2.036-.922-2.036-2.303v-.11c0-1.332.849-2.24 2.036-2.24 1.2 0 2.084.944 2.084 2.326 0 1.393-.884 2.326-2.084 2.326m10.53.69c1.588 0 2.715-1.212 2.715-2.993v-.11c0-1.72-1.14-2.932-2.715-2.932a2.41 2.41 0 0 0-2.132 1.224V5.342h-.776v8.846h.715V13a2.46 2.46 0 0 0 2.193 1.309m-.097-.69c-1.2 0-2.084-.934-2.084-2.327 0-1.382.885-2.327 2.084-2.327 1.188 0 2.036.909 2.036 2.242v.109c0 1.381-.848 2.302-2.036 2.302m3.515 2.992h1.066c.945 0 1.32-.69 1.587-1.345l2.824-6.87h-.848l-1.89 4.895-1.976-4.895h-.848l2.411 5.84-.46 1.006c-.158.376-.364.703-.764.703h-1.102z" aria-label="Founded by" font-family="SUSE" font-size="12.118" font-weight="300" letter-spacing="0" style="line-height:.8;-inkscape-font-specification:&quot;SUSE Light&quot;"/><path fill="#fff" d="M131.387 14.015c-.954 0-1.73-.776-1.73-1.73V7.157c0-.954.776-1.73 1.73-1.73h3.936a.56.56 0 0 1 0 1.117h-3.936a.613.613 0 0 0-.612.613v2.018h3.86a.53.53 0 0 1 0 1.06h-3.86v2.05c0 .337.274.612.612.612h3.936a.56.56 0 0 1 0 1.118zm-17.65.112c-1.136 0-2.01-.288-2.6-.856-.589-.568-.887-1.421-.887-2.538v-4.77a.648.648 0 0 1 1.296 0v4.6c0 .835.18 1.46.535 1.86.357.402.913.605 1.655.605s1.299-.203 1.656-.605c.355-.4.534-1.025.534-1.86v-4.6a.649.649 0 0 1 1.297 0v4.77c0 1.116-.3 1.97-.888 2.538-.59.568-1.464.856-2.599.856m9.736 0c-1.462 0-2.575-.415-3.309-1.234a.606.606 0 0 1 .03-.832l.003-.003.002-.002a.6.6 0 0 1 .435-.178c.174 0 .338.074.45.204q.308.356.696.57c.45.25 1.014.376 1.68.376.63 0 1.134-.11 1.496-.33q.56-.341.562-.967 0-.506-.51-.814c-.328-.198-.882-.368-1.695-.52-.79-.148-1.425-.332-1.891-.548-.46-.213-.8-.48-1.006-.793-.207-.311-.312-.698-.312-1.149a2.3 2.3 0 0 1 .397-1.306c.264-.391.651-.707 1.15-.937.503-.232 1.098-.35 1.769-.35.784 0 1.462.144 2.015.427q.56.287 1.001.779a.614.614 0 0 1-.456 1.02.61.61 0 0 1-.485-.239 2.2 2.2 0 0 0-.557-.523c-.376-.242-.882-.364-1.505-.364-.614 0-1.1.125-1.442.373-.348.252-.525.58-.525.976 0 .371.173.67.515.886.332.211.906.389 1.756.541.772.139 1.392.317 1.844.528.447.208.778.47.98.78.203.308.306.696.306 1.154 0 .493-.142.932-.421 1.305-.282.375-.682.666-1.189.866-.511.202-1.112.304-1.785.304m-19.406.002c-1.462 0-2.575-.415-3.31-1.234a.606.606 0 0 1 .032-.832l.003-.003a.62.62 0 0 1 .436-.18c.175 0 .339.074.45.204q.308.355.696.571c.45.25 1.014.376 1.68.376.63 0 1.133-.111 1.496-.33q.56-.341.562-.967-.001-.507-.51-.814c-.328-.199-.883-.369-1.695-.521-.79-.147-1.426-.332-1.892-.547-.46-.213-.799-.48-1.006-.793-.206-.312-.311-.698-.311-1.149 0-.476.133-.915.396-1.306.264-.392.652-.707 1.152-.938.501-.231 1.096-.349 1.767-.349.784 0 1.463.144 2.016.427.372.19.709.452 1 .778a.613.613 0 1 1-.94.782 2.2 2.2 0 0 0-.557-.523c-.377-.242-.883-.365-1.505-.365-.615 0-1.1.126-1.443.373q-.523.381-.524.977c0 .37.173.67.514.886.332.211.907.388 1.757.541.77.138 1.391.315 1.845.527q.672.316.98.78c.202.308.305.696.305 1.155 0 .493-.142.932-.422 1.304-.281.375-.681.667-1.189.867-.511.202-1.111.304-1.784.304"/><path fill="#30ba78" d="M95.563 8.347a.35.35 0 0 0-.505 0 .358.358 0 0 0 .448.55.36.36 0 0 0 .056-.55m-.461-1.214a1.32 1.32 0 1 0-.602 2.571 1.32 1.32 0 0 0 .602-2.57m-6.296 5.368c-.621-.23-.861-.184-1.656-.173-.55.007-.57-.012-1.199-.012-.194 0-.266.93.437 1.124.307.085.64.138.871.375.103.104.16.262-.077.262h-1.744c-.305 0-.593.007-.826-.19-.352-.298-.517-.707-.693-1.114-.183-.422-.38-.838-.612-1.236-.46-.792-1.07-1.508-1.886-1.946-1.02-.547-2.751-.818-4.122.235-1.444 1.109-1.135 3.186.129 4.202.499.402 1.15.57 1.788.532 1.25-.072 2.171-.993 1.943-2.126-.077-.38-.298-.739-.631-.935-.237-.138-.518-.187-.793-.188-.295 0-.609.06-.821.265a.766.766 0 0 0-.091.959c.11.158.292.292.261.499a.34.34 0 0 1-.274.274c-.234.053-.449-.081-.607-.244a1.54 1.54 0 0 1-.31-1.623c.293-.705 1.105-1.093 1.868-1.068.983.033 1.91.682 2.314 1.58.403.898.282 2-.274 2.812-1.235 1.805-4.284 1.592-5.702.07-.888-.955-1.371-1.882-1.304-3.607.048-1.22.752-2.421 1.649-3.266 1.461-1.377 3.386-2.32 5.344-2.725a12 12 0 0 1 3.625-.183c1.065.106 2.124.3 3.147.618.508.158 1.008.346 1.491.568.426.196.985.41 1.317.747 0-.612-.024-1.285-.024-1.753 0-.179.188-.3.349-.223.692.321 2.333 1.097 3.427 1.597 1.466.67 1.57 2.25 1.621 3.652.001.031.003.063-.011.091-.046.096-.293.07-.384.071-.175.002-.44 0-.615.01-.35.014-.691.008-1.041-.01a2.97 2.97 0 0 1-1.692-.67c-.042-.036-.178-.074-.241-.008a.166.166 0 0 0-.008.212c.24.242.5.399.804.555.385.198.805.248 1.23.273q.687.042 1.37-.026c.38-.04.479-.065.104.213a4 4 0 0 1-1.099.55 5.9 5.9 0 0 1-1.728.3q-.533.014-1.062-.055c-.183-.023-.364-.056-.547-.074-.148-.015-.302-.043-.45-.01a.6.6 0 0 0-.343.21c-.116.152-.156.567-.089.747.13.349.414.552.714.73.325.194.753.26.837.63.017.077-.675.079-.753.078h-.92s-.5.012-.695-.06q-.009-.002-.018-.007c-.106-.057-.152-.199-.188-.306a2 2 0 0 0-.25-.46c-.208-.296-.528-.62-.86-.744m6.968-4.083a.976.976 0 1 1-1.951 0 .976.976 0 0 1 1.951 0"/></svg>